<?xml version="1.0" encoding="UTF-8"?>
<svg id="Layer_2" data-name="Layer 2" xmlns="http://www.w3.org/2000/svg" viewBox="0 0 293.63 173.12">
  <g id="Layer_1-2" data-name="Layer 1">
    <g>
      <path d="M1.8,132.5c-3.74,4.09-1.31,10.73,4.2,11.35,37.29,4.24,85.77,6.01,141.47-1.64,58.29-8,106.35-23.82,142.02-38.74,5.2-2.17,5.58-9.38.69-12.17L132.41,1.33c-4.11-2.34-9.29-1.53-12.48,1.96C80.56,46.36,41.18,89.43,1.8,132.5Z" style="fill: #876046;"/>
      <path d="M31.1,162.91c30.36,4.11,72.68,6.63,122.28-.5,49.07-7.06,88.62-21.18,116.45-33.53-22.39,13.43-61.67,33.16-114.53,40.94-54.34,8-98.72-.2-124.19-6.9Z" style="fill: #876046;"/>
    </g>
  </g>
</svg>