<?xml version="1.0" encoding="UTF-8"?>
<svg id="Layer_2" data-name="Layer 2" xmlns="http://www.w3.org/2000/svg" viewBox="0 0 37.16 37.14">
  <defs>
    <style>
      .cls-1 {
        fill: #876046;
      }

      .cls-2 {
        fill: none;
        stroke: #876046;
        stroke-miterlimit: 10;
        stroke-width: 1.34px;
      }
    </style>
  </defs>
  <g id="Layer_1-2" data-name="Layer 1">
    <g>
      <rect class="cls-2" x="10.03" y="7.03" width="17.11" height="29.44" rx="8.55" ry="8.55"/>
      <line class="cls-2" x1="10.03" y1="18.31" x2="27.14" y2="18.31"/>
      <line class="cls-2" x1="18.58" y1="7.03" x2="18.58" y2="9.89"/>
      <line class="cls-2" x1="18.58" y1="14.92" x2="18.58" y2="18.31"/>
      <rect class="cls-2" x="17.45" y="9.89" width="2.26" height="5.04" rx=".91" ry=".91"/>
      <g>
        <path class="cls-2" d="M3.48,14.57C4.03,6.8,10.5.67,18.41.67h.34c7.91,0,14.38,6.13,14.93,13.9"/>
        <polygon class="cls-1" points="7.96 11.85 7.33 11.1 3.62 14.21 .79 10.29 0 10.86 3.45 15.64 7.96 11.85"/>
        <polygon class="cls-1" points="29.21 11.85 29.83 11.1 33.54 14.21 36.37 10.29 37.16 10.86 33.71 15.64 29.21 11.85"/>
      </g>
    </g>
  </g>
</svg>