<?xml version="1.0" encoding="UTF-8"?>
<svg id="Layer_2" data-name="Layer 2" xmlns="http://www.w3.org/2000/svg" viewBox="0 0 387.66 190.77">
  <g id="Layer_1-2" data-name="Layer 1">
    <g>
      <g>
        <g>
          <path d="M124.6,94.91h.05v8.11h-24.64v-.05c.26,0,2.84-.42,2.84-4.63v-31.7c0-4.21-2.58-4.63-2.84-4.63v-.05h10.43v.05c-.21,0-2.84.42-2.84,4.63v35.65h12.27c4.32,0,4.74-6.69,4.74-7.37Z" style="fill: #876046;"/>
          <path d="M127.71,72.9v-.05h7.16v26.12c0,3.63,2.21,4,2.48,4v.05h-9.64v-.05c.26,0,2.47-.37,2.47-4v-22.06c0-3.63-2.21-4-2.47-4ZM132.29,64.16c1.47,0,2.74,1.26,2.74,2.79s-1.26,2.79-2.74,2.79-2.79-1.26-2.79-2.79,1.26-2.79,2.79-2.79Z" style="fill: #876046;"/>
          <path d="M142.08,72.9v-.05h7.16v6.79c1.32-3.63,4.84-7.32,10.79-7.32,3.79,0,6.85,1.21,8.53,3.69,1.05,1.47,1.63,3.53,1.63,5.85v17.11c0,3.63,2.21,4,2.48,4v.05h-9.64v-.05c.26,0,2.47-.37,2.47-4v-15.8c0-2.21-.32-4.16-1-5.63-1.11-2.37-3.05-3.63-5.9-3.63-4.79,0-8.9,4.05-9.37,8.64v16.43c0,3.63,2.21,4,2.48,4v.05h-9.64v-.05c.26,0,2.47-.37,2.47-4v-22.06c0-3.63-2.21-4-2.47-4Z" style="fill: #876046;"/>
          <path d="M176.52,60.95v-.05h7.16v18.75c1.32-3.63,4.84-7.32,10.79-7.32,3.79,0,6.84,1.21,8.53,3.69,1.05,1.47,1.63,3.53,1.63,5.85v17.11c0,3.63,2.21,4,2.48,4v.05h-9.64v-.05c.26,0,2.47-.37,2.47-4v-15.8c0-2.21-.32-4.16-1-5.63-1.11-2.37-3.05-3.63-5.9-3.63-4.79,0-8.9,4.05-9.37,8.64v16.43c0,3.63,2.21,4,2.47,4v.05h-9.64v-.05c.26,0,2.48-.37,2.48-4v-34.02c0-3.63-2.21-4-2.48-4Z" style="fill: #876046;"/>
          <path d="M224.28,60.95v-.05h7.16v18.75c1.32-3.63,4.84-7.32,10.79-7.32,3.79,0,6.84,1.21,8.53,3.69,1.05,1.47,1.63,3.53,1.63,5.85v17.11c0,3.63,2.21,4,2.48,4v.05h-9.64v-.05c.26,0,2.47-.37,2.47-4v-15.8c0-2.21-.32-4.16-1-5.63-1.11-2.37-3.05-3.63-5.9-3.63-4.79,0-8.9,4.05-9.37,8.64v16.43c0,3.63,2.21,4,2.47,4v.05h-9.64v-.05c.26,0,2.48-.37,2.48-4v-34.02c0-3.63-2.21-4-2.48-4Z" style="fill: #876046;"/>
          <path d="M259.13,87.96c0-8.06,4.42-15.64,14.64-15.64s14.64,7.58,14.64,15.64-4.42,15.59-14.64,15.59-14.64-7.58-14.64-15.59ZM273.77,102.76c5.74,0,9.95-5.69,9.95-14.8s-4.21-14.8-9.95-14.8-9.9,5.69-9.9,14.8,4.16,14.8,9.9,14.8ZM266.19,71.43c2.74-.63,5.9-2.05,7.53-3.21h.11c1.68,1.16,4.84,2.58,7.58,3.21l.1-.05c-2.53-1.26-6.27-4.48-7.69-7.06h-.11c-1.37,2.58-5.11,5.79-7.64,7.06l.11.05ZM276.3,64.32l2.32-3.21h.05c1.95,3.32,5.79,6.48,7.9,7.11l-.11.11c-3-.21-7.53-2.26-10.16-3.95v-.05Z" style="fill: #876046;"/>
          <path d="M292.73,72.9v-.05h7.16v6.79c1.32-3.63,4.84-7.32,10.79-7.32,3.79,0,6.85,1.21,8.53,3.69,1.05,1.47,1.63,3.53,1.63,5.85v17.11c0,3.63,2.21,4,2.48,4v.05h-9.64v-.05c.26,0,2.47-.37,2.47-4v-15.8c0-2.21-.32-4.16-1-5.63-1.11-2.37-3.05-3.63-5.9-3.63-4.79,0-8.9,4.05-9.37,8.64v16.43c0,3.63,2.21,4,2.48,4v.05h-9.64v-.05c.26,0,2.47-.37,2.47-4v-22.06c0-3.63-2.21-4-2.47-4Z" style="fill: #876046;"/>
        </g>
        <g>
          <path d="M28.38,163.1c-2.88,4.59-5.93,8.14-9.14,10.66-3.22,2.52-6.33,3.78-9.34,3.78-1.67,0-3.21-.36-4.62-1.08-1.42-.72-2.57-1.75-3.47-3.1-.94-1.35-1.52-2.82-1.72-4.42-.2-1.6-.01-3.12.57-4.55,1.04-2.52,3.35-4.81,6.95-6.88,3.69-2.11,7.29-3.17,10.79-3.17,1.17,0,2.57.29,4.22.88,1.64.59,3.63,1.53,5.97,2.83.27-.67.55-1.42.84-2.23.29-.81.6-1.66.91-2.56.31-.94.72-2.17,1.21-3.68.49-1.51,1.08-3.29,1.75-5.36,1.03-3.15,1.93-5.86,2.7-8.13.76-2.27,1.39-4.13,1.89-5.57.49-1.44.99-2.77,1.48-3.98.49-1.21.99-2.32,1.48-3.31,2.43-5.44,6.07-9.61,10.93-12.52,4.86-2.9,10.66-4.35,17.41-4.35,1.93,0,4.54.32,7.83.94,3.28.63,5.42,1.17,6.41,1.62.36.09.54.34.54.74,0,.67-.5,1.44-1.48,2.29-1.04.9-1.8,1.35-2.29,1.35-.23,0-.5-.02-.81-.07-.31-.04-.61-.09-.88-.14-.5-.13-1.09-.31-1.79-.54-.7-.22-1.81-.63-3.34-1.21-1.57-.63-2.97-1.15-4.18-1.55s-2.25-.72-3.1-.94c-1.71-.4-3.19-.61-4.45-.61-2.38,0-4.28.39-5.7,1.18-1.42.79-2.78,2.13-4.08,4.01-.81,1.12-1.65,2.53-2.53,4.22-.88,1.69-1.86,3.74-2.93,6.17-.32.63-.63,1.32-.95,2.06-.32.74-.65,1.52-1.01,2.33-.36.77-.79,1.77-1.28,3-.5,1.24-1.08,2.69-1.75,4.35-1.31,3.15-2.46,5.87-3.47,8.16-1.01,2.29-1.88,4.21-2.6,5.73-1.35,3.06-2.63,5.76-3.85,8.1l-.88,1.69c.63.36,1.46.87,2.5,1.52,1.03.65,2.29,1.45,3.78,2.4,1.53.94,2.88,1.78,4.05,2.5,1.17.72,2.18,1.33,3.04,1.82,3.24,1.8,6.02,3.13,8.33,3.98,2.32.85,4.37,1.28,6.17,1.28,2.97,0,5.76-1.04,8.37-3.1.81-.58,1.57-1.24,2.29-1.96.72-.72,2.07-2.2,4.05-4.45l.54.4c-.9,1.03-1.63,1.88-2.19,2.53-.56.65-.96,1.11-1.18,1.38-.23.27-.45.52-.67.74-.23.22-.43.43-.61.61-3.28,3.28-6.05,5.47-8.3,6.54-2.25,1.08-4.66,1.62-7.22,1.62-1.53,0-3.34-.44-5.43-1.32-2.09-.88-4.69-2.33-7.79-4.35-.76-.5-1.7-1.12-2.8-1.89-1.1-.77-2.35-1.64-3.74-2.63-1.4-.99-2.53-1.79-3.41-2.4-.88-.61-1.54-1.07-1.99-1.38ZM14.21,156.22c-4.63,0-7.74,2.07-9.31,6.21-.45,1.17-.48,2.47-.1,3.91.38,1.44,1.11,2.79,2.19,4.05.99,1.17,2.14,2.08,3.44,2.73,1.3.65,2.65.98,4.05.98,2.56,0,4.75-.9,6.54-2.7,1.89-1.89,3.82-5.02,5.8-9.38-2.97-2.02-5.46-3.5-7.49-4.42-2.02-.92-3.73-1.38-5.13-1.38Z" style="fill: #876046;"/>
          <path d="M83.64,163.84c-.23.18-.63.27-1.21.27-.27,0-.56-.02-.88-.07-.32-.04-.52-.11-.61-.2-1.58-1.12-2.38-3.35-2.43-6.68-.09-3.33.58-6.75,2.02-10.26,1.26-3.1,3.31-6.07,6.14-8.91,2.74-2.74,5.85-4.93,9.31-6.54,2.74-1.3,5.1-1.96,7.08-1.96s3.55.36,4.72,1.08c1.26.67,2.74,1.96,4.45,3.85.58-.49,1.36-1.2,2.33-2.13.97-.92,1.76-1.74,2.39-2.46.41-.4.61-.36.61.13-1.71,2.16-3.41,4.51-5.09,7.05-1.69,2.54-3.39,5.32-5.09,8.33-3.42,5.98-5.06,10.12-4.92,12.41.04.59.3,1.16.78,1.72.47.56,1.02.93,1.65,1.11.54-.27,1.17-.61,1.89-1.01.72-.4,1.44-.88,2.16-1.42.72-.54,1.44-1.1,2.16-1.69.72-.58,1.35-1.19,1.89-1.82l.4.47c-2.2,2.16-4.15,3.92-5.84,5.3-1.69,1.37-3.29,2.51-4.82,3.41-.13.05-.34.09-.61.14-.27.05-.58.07-.94.07-.5,0-.98-.03-1.45-.1-.47-.07-.73-.12-.78-.17-.58-.67-1.08-1.53-1.48-2.56-.4-1.03-.63-1.98-.67-2.83-.04-.9.12-1.93.51-3.1.38-1.17,1.02-2.5,1.92-3.98.54-.85,1.28-2,2.23-3.44.49-.72.9-1.33,1.21-1.82.31-.49.56-.85.74-1.08-1.89,2.02-4,4.19-6.34,6.51-2.34,2.32-4.68,4.55-7.02,6.71-1.66,1.53-2.97,2.7-3.91,3.51s-1.78,1.53-2.5,2.16ZM85.53,146.03c-1.04,3.24-1.58,6.19-1.65,8.84-.07,2.65.37,4.52,1.32,5.6.81-.18,2.2-1.1,4.18-2.77,1.3-1.08,2.73-2.36,4.29-3.85s3.27-3.17,5.16-5.06c3.69-3.73,6.95-7.33,9.78-10.79-1.98-2.52-3.68-4.29-5.09-5.33-1.42-1.03-2.87-1.55-4.35-1.55-.94,0-1.91.25-2.9.74-2.21,1.04-4.27,2.86-6.21,5.47-.99,1.31-1.87,2.69-2.63,4.15-.77,1.46-1.39,2.98-1.89,4.55ZM107.59,125.93c-.09,0-.18-.04-.27-.13-.76-.94-1.64-1.9-2.63-2.87-.99-.97-2.29-2.1-3.91-3.41-.54-.4-.89-.69-1.05-.84-.16-.16-.28-.28-.37-.37-.23-.18-.44-.54-.64-1.08-.2-.54-.28-.97-.24-1.28.09-.27.31-.54.67-.81.36-.27.7-.4,1.01-.4.58,0,1.26.52,2.02,1.55.04.09.12.23.24.4.11.18.3.56.57,1.15.94,1.89,1.78,3.41,2.5,4.55.72,1.15,1.46,2.17,2.23,3.07.04.05.07.11.07.2,0,.18-.07.27-.2.27Z" style="fill: #876046;"/>
          <path d="M128.44,153.52c-.32.5-.65,1.01-1.01,1.55-.36.54-.72,1.12-1.08,1.75-.36.63-.9,1.52-1.62,2.67-.72,1.15-1.6,2.58-2.63,4.28-.63.05-1.07.08-1.32.1-.25.02-.48.03-.71.03-2.07,0-2.74-.97-2.02-2.9,3.42-4.59,6.39-9.36,8.91-14.3,2.52-4.9,3.71-8.41,3.58-10.53-.05-.67-.26-1.27-.64-1.79-.38-.52-.89-.87-1.52-1.05-1.04.27-2.28.91-3.75,1.92-1.46,1.01-2.82,2.19-4.08,3.54l-.47-.47c1.75-1.71,3.59-3.31,5.5-4.79,1.91-1.48,3.7-2.7,5.36-3.64.54-.22.92-.34,1.15-.34.94,0,1.78.7,2.5,2.09.36.72.65,1.45.88,2.19.22.74.36,1.5.41,2.26.09,1.26-.27,2.9-1.08,4.93-.76,1.93-2.32,4.93-4.66,8.97,3.6-4.54,7.89-8.93,12.89-13.16,4.9-4.18,8.66-6.66,11.27-7.42,2.29.5,3.19,2.17,2.7,5.03-.5,2.86-2.38,7.05-5.67,12.58-.18.27-.38.62-.61,1.05-.23.43-.52.96-.88,1.59-.36.58-.66,1.09-.91,1.52-.25.43-.46.8-.64,1.11-.76,1.39-1.3,2.53-1.62,3.41-.32.88-.45,1.63-.4,2.26.09,1.44.74,2.34,1.96,2.7.54-.18,1.16-.46,1.86-.84.7-.38,1.41-.83,2.13-1.35.72-.52,1.44-1.08,2.16-1.69.72-.61,1.39-1.23,2.02-1.86l.41.47c-2.02,2.02-3.88,3.7-5.57,5.03-1.69,1.33-3.32,2.46-4.89,3.41-.18.09-.35.15-.51.17-.16.02-.44.03-.84.03-.36,0-.71-.02-1.05-.07-.34-.04-.55-.11-.64-.2-.72-.54-1.32-1.34-1.79-2.4-.47-1.06-.73-2.03-.78-2.94-.04-.63.13-1.46.54-2.5.4-1.03,1.06-2.34,1.96-3.91.22-.36.48-.81.78-1.35.29-.54.64-1.15,1.05-1.82.45-.67.81-1.25,1.08-1.72.27-.47.5-.84.67-1.11,1.12-1.98,2.06-3.69,2.8-5.13.74-1.44,1.27-2.68,1.58-3.71.31-1.03.43-1.89.34-2.56-.09-.67-.38-1.26-.88-1.75-2.43.72-5.92,3.15-10.46,7.29-4.54,4.05-8.46,8.5-11.74,13.36Z" style="fill: #876046;"/>
          <path d="M181.27,181.52c-1.62,2.74-4.61,4.99-8.97,6.75-4.27,1.75-8.79,2.59-13.56,2.5-3.37-.05-6.27-.54-8.7-1.48-2.43-.94-4-2.27-4.72-3.98-.58-1.4-.52-2.77.2-4.12.54-1.21,1.58-2.52,3.14-3.91,1.55-1.39,3.84-3.1,6.85-5.13.09-.05.53-.33,1.32-.84.79-.52,1.97-1.29,3.54-2.33,1.53-.99,2.9-1.9,4.12-2.73,1.21-.83,2.27-1.56,3.17-2.19h-.4c-.18,0-.35-.02-.51-.07-.16-.04-.3-.09-.44-.14-1.62-1.17-2.45-3.4-2.5-6.68-.04-3.24.65-6.63,2.09-10.19.67-1.62,1.55-3.19,2.63-4.72,1.08-1.53,2.32-2.98,3.71-4.35,1.39-1.37,2.91-2.62,4.55-3.74,1.64-1.12,3.34-2.09,5.09-2.9,1.26-.58,2.49-1.03,3.68-1.35,1.19-.31,2.26-.47,3.2-.47,1.57,0,2.86.31,3.85.94.5.32,1.14.87,1.92,1.65.79.79,1.7,1.81,2.73,3.07,1.03-.85,2.07-1.74,3.1-2.67,1.03-.92,1.93-1.74,2.7-2.46l.47.27c-1.12,1.35-2.19,2.7-3.21,4.05-1.01,1.35-1.92,2.65-2.73,3.91-2.88,4.59-5.29,8.99-7.22,13.19-1.93,4.21-3.46,8.42-4.59,12.65-.31,1.17-.62,2.37-.91,3.61-.29,1.24-.62,2.93-.98,5.09-.27,1.39-.52,2.57-.74,3.54-.23.97-.43,1.74-.61,2.33-.18.58-.38,1.11-.61,1.59-.23.47-.45.91-.67,1.32ZM151.11,184.76c.72,1.71,2.02,3.02,3.91,3.95,1.89.92,4.25,1.38,7.08,1.38,2.47,0,4.88-.66,7.22-1.99,2.34-1.33,4.36-3.2,6.07-5.63.58-.94,1.12-2.09,1.62-3.44.45-1.35,1.06-3.71,1.82-7.08.27-1.35.52-2.54.74-3.58.22-1.04.45-1.97.67-2.8.22-.83.44-1.61.64-2.33.2-.72.42-1.42.64-2.09,1.03-3.1,2.18-6,3.44-8.7,1.26-2.7,2.72-5.4,4.39-8.1-1.62,1.67-3.32,3.39-5.09,5.16s-3.68,3.61-5.7,5.5c-2.02,1.89-3.82,3.55-5.4,4.99-1.58,1.44-2.97,2.68-4.18,3.71-4.68,3.37-7.65,5.53-8.91,6.48-.63.49-1.21.97-1.75,1.42-.54.45-1.06.9-1.55,1.35-1.39,1.21-2.54,2.35-3.44,3.41-.9,1.06-1.57,2.08-2.02,3.07-.85,1.93-.92,3.71-.2,5.33ZM170.88,146.1c-1.08,3.37-1.63,6.34-1.65,8.91-.02,2.56.46,4.43,1.45,5.6,2.61-1.75,6.39-4.99,11.33-9.72,4.95-4.68,8.86-8.91,11.74-12.68-2.52-3.1-4.34-5.08-5.46-5.94-1.04-.81-2.14-1.21-3.31-1.21-.81,0-1.78.25-2.9.74-2.29.99-4.5,2.83-6.61,5.53-1.04,1.31-1.93,2.7-2.7,4.18-.77,1.48-1.39,3.01-1.89,4.59Z" style="fill: #876046;"/>
          <path d="M234.77,153.52c-.32.5-.65,1.01-1.01,1.55-.36.54-.72,1.12-1.08,1.75-.36.63-.9,1.52-1.62,2.67-.72,1.15-1.6,2.58-2.63,4.28-.63.05-1.07.08-1.32.1-.25.02-.48.03-.71.03-2.07,0-2.74-.97-2.02-2.9,3.42-4.59,6.39-9.36,8.91-14.3,2.52-4.9,3.71-8.41,3.58-10.53-.05-.67-.26-1.27-.64-1.79-.38-.52-.89-.87-1.52-1.05-1.04.27-2.28.91-3.75,1.92-1.46,1.01-2.82,2.19-4.08,3.54l-.47-.47c1.75-1.71,3.59-3.31,5.5-4.79,1.91-1.48,3.7-2.7,5.36-3.64.54-.22.92-.34,1.15-.34.94,0,1.78.7,2.5,2.09.36.72.65,1.45.88,2.19.22.74.36,1.5.41,2.26.09,1.26-.27,2.9-1.08,4.93-.76,1.93-2.32,4.93-4.66,8.97,3.6-4.54,7.89-8.93,12.89-13.16,4.9-4.18,8.66-6.66,11.27-7.42,2.29.5,3.19,2.17,2.7,5.03-.5,2.86-2.38,7.05-5.67,12.58-.18.27-.38.62-.61,1.05-.23.43-.52.96-.88,1.59-.36.58-.66,1.09-.91,1.52-.25.43-.46.8-.64,1.11-.76,1.39-1.3,2.53-1.62,3.41-.32.88-.45,1.63-.4,2.26.09,1.44.74,2.34,1.96,2.7.54-.18,1.16-.46,1.86-.84.7-.38,1.41-.83,2.13-1.35.72-.52,1.44-1.08,2.16-1.69.72-.61,1.39-1.23,2.02-1.86l.41.47c-2.02,2.02-3.88,3.7-5.57,5.03-1.69,1.33-3.32,2.46-4.89,3.41-.18.09-.35.15-.51.17-.16.02-.44.03-.84.03-.36,0-.71-.02-1.05-.07-.34-.04-.55-.11-.64-.2-.72-.54-1.32-1.34-1.79-2.4-.47-1.06-.73-2.03-.78-2.94-.04-.63.13-1.46.54-2.5.4-1.03,1.06-2.34,1.96-3.91.22-.36.48-.81.78-1.35.29-.54.64-1.15,1.05-1.82.45-.67.81-1.25,1.08-1.72.27-.47.5-.84.67-1.11,1.12-1.98,2.06-3.69,2.8-5.13.74-1.44,1.27-2.68,1.58-3.71.31-1.03.43-1.89.34-2.56-.09-.67-.38-1.26-.88-1.75-2.43.72-5.92,3.15-10.46,7.29-4.54,4.05-8.46,8.5-11.74,13.36Z" style="fill: #876046;"/>
          <path d="M287.6,181.52c-1.62,2.74-4.61,4.99-8.97,6.75-4.27,1.75-8.79,2.59-13.56,2.5-3.37-.05-6.27-.54-8.7-1.48-2.43-.94-4-2.27-4.72-3.98-.58-1.4-.52-2.77.2-4.12.54-1.21,1.58-2.52,3.14-3.91,1.55-1.39,3.84-3.1,6.85-5.13.09-.05.53-.33,1.32-.84.79-.52,1.97-1.29,3.54-2.33,1.53-.99,2.9-1.9,4.12-2.73,1.21-.83,2.27-1.56,3.17-2.19h-.4c-.18,0-.35-.02-.51-.07-.16-.04-.3-.09-.44-.14-1.62-1.17-2.45-3.4-2.5-6.68-.04-3.24.65-6.63,2.09-10.19.67-1.62,1.55-3.19,2.63-4.72,1.08-1.53,2.32-2.98,3.71-4.35,1.39-1.37,2.91-2.62,4.55-3.74,1.64-1.12,3.34-2.09,5.09-2.9,1.26-.58,2.49-1.03,3.68-1.35,1.19-.31,2.26-.47,3.2-.47,1.57,0,2.86.31,3.85.94.5.32,1.14.87,1.92,1.65.79.79,1.7,1.81,2.73,3.07,1.03-.85,2.07-1.74,3.1-2.67,1.03-.92,1.93-1.74,2.7-2.46l.47.27c-1.12,1.35-2.19,2.7-3.21,4.05-1.01,1.35-1.92,2.65-2.73,3.91-2.88,4.59-5.29,8.99-7.22,13.19-1.93,4.21-3.46,8.42-4.59,12.65-.31,1.17-.62,2.37-.91,3.61-.29,1.24-.62,2.93-.98,5.09-.27,1.39-.52,2.57-.74,3.54-.23.97-.43,1.74-.61,2.33-.18.58-.38,1.11-.61,1.59-.23.47-.45.91-.67,1.32ZM257.44,184.76c.72,1.71,2.02,3.02,3.91,3.95,1.89.92,4.25,1.38,7.08,1.38,2.47,0,4.88-.66,7.22-1.99,2.34-1.33,4.36-3.2,6.07-5.63.58-.94,1.12-2.09,1.62-3.44.45-1.35,1.06-3.71,1.82-7.08.27-1.35.52-2.54.74-3.58.22-1.04.45-1.97.67-2.8.22-.83.44-1.61.64-2.33.2-.72.42-1.42.64-2.09,1.03-3.1,2.18-6,3.44-8.7,1.26-2.7,2.72-5.4,4.39-8.1-1.62,1.67-3.32,3.39-5.09,5.16s-3.68,3.61-5.7,5.5c-2.02,1.89-3.82,3.55-5.4,4.99-1.58,1.44-2.97,2.68-4.18,3.71-4.68,3.37-7.65,5.53-8.91,6.48-.63.49-1.21.97-1.75,1.42-.54.45-1.06.9-1.55,1.35-1.39,1.21-2.54,2.35-3.44,3.41-.9,1.06-1.57,2.08-2.02,3.07-.85,1.93-.92,3.71-.2,5.33ZM277.21,146.1c-1.08,3.37-1.63,6.34-1.65,8.91-.02,2.56.46,4.43,1.45,5.6,2.61-1.75,6.39-4.99,11.33-9.72,4.95-4.68,8.86-8.91,11.74-12.68-2.52-3.1-4.34-5.08-5.46-5.94-1.04-.81-2.14-1.21-3.31-1.21-.81,0-1.78.25-2.9.74-2.29.99-4.5,2.83-6.61,5.53-1.04,1.31-1.93,2.7-2.7,4.18-.77,1.48-1.39,3.01-1.89,4.59Z" style="fill: #876046;"/>
          <path d="M307.98,163.57c-.32.05-.56.07-.74.07h-.47c-1.89,0-2.47-.97-1.75-2.9.32-.49.71-1.16,1.18-1.99.47-.83,1.05-1.83,1.72-3,1.39-2.43,3.89-6.88,7.49-13.36,1.89-3.37,3.46-6.18,4.72-8.43,1.26-2.25,2.25-3.98,2.97-5.2.72-1.26,1.32-2.3,1.79-3.14.47-.83.87-1.47,1.18-1.92,1.71-2.79,4.03-5.51,6.95-8.16,2.92-2.65,6.12-4.9,9.58-6.75,6.21-3.28,12.53-4.93,18.96-4.93,1.89,0,3.5.03,4.82.1,1.33.07,2.33.15,3,.24.54.09.81.38.81.88,0,.63-.38,1.44-1.15,2.43-.76.94-1.42,1.42-1.96,1.42-.67,0-1.46-.03-2.36-.1-.9-.07-2.36-.19-4.39-.37-1.35-.14-2.53-.25-3.54-.34-1.01-.09-1.91-.16-2.7-.2-.79-.04-1.5-.08-2.12-.1-.63-.02-1.26-.03-1.89-.03-1.71,0-3.1.11-4.18.34-1.08.23-2.12.61-3.1,1.15-1.71.9-3.49,2.5-5.33,4.79-1.84,2.29-4,5.56-6.48,9.78-.81,1.35-1.86,3.16-3.14,5.43-1.28,2.27-2.82,5.03-4.62,8.27-1.8,3.24-3.24,5.86-4.32,7.86-1.08,2-1.85,3.39-2.29,4.15,1.93-2.38,4.01-4.68,6.24-6.88,2.23-2.2,4.64-4.34,7.25-6.41,5.22-4.23,8.95-6.5,11.2-6.81,2.29.5,3.19,2.17,2.7,5.03-.5,2.86-2.38,7.05-5.67,12.58-.18.27-.38.62-.61,1.05-.23.43-.52.96-.88,1.59-.36.58-.67,1.09-.91,1.52-.25.43-.46.8-.64,1.11-.76,1.39-1.3,2.53-1.62,3.41-.31.88-.45,1.63-.4,2.26.09,1.44.74,2.34,1.96,2.7.58-.18,1.24-.47,1.96-.88.72-.4,1.46-.87,2.23-1.38.76-.52,1.51-1.07,2.23-1.65.72-.58,1.37-1.19,1.96-1.82l.4.47c-1.75,1.71-3.54,3.28-5.36,4.72-1.82,1.44-3.59,2.68-5.3,3.71-.13.05-.3.09-.51.14-.2.05-.44.07-.71.07-.4,0-.79-.02-1.15-.07-.36-.04-.58-.11-.67-.2-.72-.54-1.32-1.34-1.79-2.4-.47-1.06-.73-2.03-.78-2.94-.04-.63.14-1.46.54-2.5.41-1.03,1.06-2.34,1.96-3.91.22-.36.48-.81.78-1.35.29-.54.64-1.15,1.05-1.82.45-.67.81-1.25,1.08-1.72.27-.47.49-.84.67-1.11,2.29-3.96,3.75-6.98,4.38-9.07.63-2.09.45-3.61-.54-4.55-2.38.54-6,2.95-10.86,7.22-2.38,2.16-4.59,4.39-6.61,6.68-2.02,2.29-3.89,4.7-5.6,7.22-.54.77-1.09,1.64-1.65,2.63-.56.99-1.38,2.43-2.46,4.32-.5.94-.85,1.61-1.08,1.99-.23.38-.43.73-.61,1.05h-.27c-.09,0-.27.02-.54.07Z" style="fill: #876046;"/>
          <path d="M365.87,161.55c-1.89,1.04-3.51,1.78-4.86,2.23-1.35.45-2.63.67-3.85.67-.67,0-1.37-.15-2.09-.44-.72-.29-1.39-.67-2.02-1.15s-1.18-1.03-1.65-1.69c-.47-.65-.82-1.34-1.05-2.06-.67-2.29-.72-4.64-.13-7.05.58-2.41,1.75-5.16,3.51-8.27.63-1.08,1.39-2.17,2.29-3.27.9-1.1,1.93-2.21,3.1-3.34,2.43-2.29,4.79-4.09,7.08-5.4,1.44-.76,2.88-1.36,4.32-1.79,1.44-.43,2.79-.64,4.05-.64,1.93,0,3.43.34,4.49,1.01s1.59,1.6,1.59,2.77c0,1.66-1.1,3.57-3.31,5.7-2.21,2.14-5.74,4.76-10.59,7.86-2.92,1.75-5.15,3.1-6.68,4.05-.77.5-1.53.96-2.29,1.38-.77.43-1.53.87-2.29,1.32-.05.5-.08.99-.1,1.48-.02.5-.01,1.04.03,1.62.85,3.1,2.74,4.66,5.67,4.66.9,0,1.93-.15,3.1-.44,1.17-.29,2.25-.66,3.24-1.11,1.08-.49,2.47-1.44,4.18-2.83.9-.72,1.69-1.41,2.36-2.06.67-.65,1.26-1.29,1.75-1.92l.61.34c-1.26,1.53-2.81,3.04-4.66,4.52-1.84,1.48-3.78,2.77-5.8,3.85ZM367.49,131.73c-1.21.81-2.58,2.14-4.08,3.98-1.51,1.85-2.85,3.87-4.01,6.07-1.04,1.89-1.88,3.76-2.53,5.6-.65,1.84-1.09,3.64-1.32,5.4,2.16-1.26,4.13-2.44,5.9-3.54,1.78-1.1,3.41-2.13,4.89-3.07,2.83-1.84,4.93-3.37,6.27-4.59,1.35-1.21,2.23-2.34,2.63-3.37.18-.4.27-.9.27-1.48,0-.67-.17-1.34-.51-1.99-.34-.65-.8-1.21-1.38-1.69-.58-.47-1.26-.85-2.02-1.15-.77-.29-1.55-.44-2.36-.44-.67,0-1.26.09-1.75.27ZM383.81,124.44c0,.81-.5,1.24-1.48,1.28-1.75.31-2.68-.14-2.77-1.35-.32-2.25-.65-3.99-1.01-5.23-.36-1.24-.81-2.24-1.35-3-.13-.13-.27-.2-.4-.2-1.44,1.12-2.72,2.28-3.85,3.47-1.12,1.19-2.29,2.78-3.51,4.76-.32.45-.75.82-1.32,1.11-.56.29-1.2.46-1.92.51-1.04.27-1.6.02-1.69-.74-.09-.94,1.03-2.27,3.37-3.98,1.17-.9,2.49-1.8,3.95-2.7,1.46-.9,3.07-1.8,4.82-2.7.31-.18.63-.13.94.13.81.81,1.57,1.62,2.29,2.43.72.81,1.36,1.61,1.92,2.4.56.79,1.01,1.51,1.35,2.16.34.65.55,1.2.64,1.65ZM387.46,118.98c-.09,0-.18-.04-.27-.14-.77-.94-1.64-1.9-2.63-2.87-.99-.97-2.29-2.1-3.91-3.41-.54-.4-.89-.69-1.05-.84-.16-.16-.28-.28-.37-.37-.23-.18-.44-.54-.64-1.08-.2-.54-.28-.97-.24-1.28.09-.27.31-.54.67-.81.36-.27.7-.4,1.01-.4.58,0,1.26.52,2.02,1.55.04.09.12.23.24.4.11.18.3.56.57,1.15.94,1.89,1.78,3.41,2.5,4.55s1.46,2.17,2.23,3.07c.04.04.07.11.07.2,0,.18-.07.27-.2.27Z" style="fill: #876046;"/>
        </g>
      </g>
      <g>
        <path d="M179.54,27.8c-.78.86-.28,2.25.88,2.38,7.82.89,17.99,1.26,29.68-.34,12.23-1.68,22.31-5,29.79-8.13,1.09-.46,1.17-1.97.14-2.55L206.95.28c-.86-.49-1.95-.32-2.62.41-8.26,9.04-16.52,18.07-24.78,27.11Z" style="fill: #876046;"/>
        <path d="M185.69,34.18c6.37.86,15.25,1.39,25.65-.11,10.3-1.48,18.59-4.44,24.43-7.04-4.7,2.82-12.94,6.96-24.03,8.59-11.4,1.68-20.71-.04-26.05-1.45Z" style="fill: #876046;"/>
      </g>
    </g>
  </g>
</svg>