<?xml version="1.0" encoding="UTF-8"?>
<svg id="Layer_2" data-name="Layer 2" xmlns="http://www.w3.org/2000/svg" viewBox="0 0 363.67 116.81">
  <defs>
    <style>
      .cls-1 {
        fill: #876046;
      }
    </style>
  </defs>
  <g id="Layer_1-2" data-name="Layer 1">
    <g>
      <g>
        <path class="cls-1" d="M84.05,44.92h-.03v-5.16h19.93v5.16h-.03c0-.44-.3-4.69-3.18-4.69h-5.22v22.67c0,2.68,1.64,2.95,1.81,2.95v.03h-6.67v-.03c.17,0,1.81-.27,1.81-2.95v-22.67h-5.26c-2.88,0-3.15,4.25-3.15,4.69Z"/>
        <path class="cls-1" d="M104.71,46.73v-.03h4.56v4.32c.84-2.31,2.44-4.66,5.96-4.66.94,0,1.88.17,2.28.17v5.9h-.07c-.17-1.34-.5-2.61-1.14-3.45-.5-.77-1.27-1.24-2.38-1.24-2.31,0-4.35,2.21-4.66,5.12v10.45c0,2.31,1.41,2.55,1.57,2.55v.03h-6.13v-.03c.17,0,1.57-.23,1.57-2.55v-14.03c0-2.31-1.41-2.55-1.57-2.55Z"/>
        <path class="cls-1" d="M120.28,52.29l-.13-.1c.13-2.61,2.88-5.69,7.67-5.69,2.04,0,4.22.44,5.63,1.67,1.07.97,1.64,2.38,1.64,4.25v10.88c0,2.31,1.44,2.55,1.57,2.55v.03h-4.52v-4.45c-1.17,2.44-3.72,4.66-7.4,4.66-3.92,0-5.49-2.01-5.49-4.35,0-4.15,4.52-7.27,12.9-7.37v-1.51c0-1.51-.33-2.68-.94-3.52-.87-1.31-2.44-1.94-4.22-1.94-3.52,0-6.33,2.51-6.7,4.89ZM125.8,65.01c3.15,0,5.63-2.48,6.33-4.52v-5.66c-7.67.13-9.85,3.88-9.85,6.5,0,1.91,1.11,3.68,3.52,3.68ZM127.68,39.83c1.24,0,2.51.57,2.51,1.74,0,1.78-2.98,2.28-2.98,3.58-.07,0-.13-.1-.13-.23,0-1.47,1.17-1.88,1.17-3.42,0-.84-.4-1.14-.9-1.14-1,0-1.51,1.44-1.61,2.68h-.07l-.23-2.41c.6-.5,1.41-.8,2.24-.8Z"/>
        <path class="cls-1" d="M139.2,46.73v-.03h4.56v16.61c0,2.31,1.41,2.55,1.57,2.55v.03h-6.13v-.03c.17,0,1.57-.23,1.57-2.55v-14.03c0-2.31-1.41-2.55-1.57-2.55ZM142.11,41.17c.94,0,1.74.8,1.74,1.78s-.8,1.77-1.74,1.77-1.77-.8-1.77-1.77.8-1.78,1.77-1.78Z"/>
        <path class="cls-1" d="M156.81,46.73v-.03h4.56v4.32c.84-2.31,3.08-4.66,6.87-4.66,2.41,0,4.35.77,5.43,2.34.67.94,1.04,2.24,1.04,3.72v10.88c0,2.31,1.41,2.55,1.57,2.55v.03h-6.13v-.03c.17,0,1.57-.23,1.57-2.55v-10.05c0-1.41-.2-2.65-.64-3.58-.7-1.51-1.94-2.31-3.75-2.31-3.05,0-5.66,2.58-5.96,5.49v10.45c0,2.31,1.41,2.55,1.57,2.55v.03h-6.13v-.03c.17,0,1.57-.23,1.57-2.55v-14.03c0-2.31-1.41-2.55-1.57-2.55Z"/>
        <path class="cls-1" d="M192.21,70.67c1-1.41,1.34-3.35,1.34-5.33v-2.58c-.8,1.64-2.75,3.45-6,3.45-6,0-8.57-4.69-8.57-9.68,0-5.93,3.68-10.18,9.24-10.18,3.08,0,4.86,1.74,5.33,2.61v-2.28h4.52v.03c-.13,0-1.57.23-1.57,2.55v15.17c0,1.67-.07,3.79-1.24,5.53-1.21,1.74-3.55,3.15-7.3,3.15-3.52,0-5.46-1.04-6.67-1.04v-5.49h.03c.27,1.78.77,3.45,1.64,4.35,1.37,1.47,3.25,1.64,4.79,1.64,2.04,0,3.58-.74,4.45-1.91ZM188.36,65.31c2.68,0,4.82-1.78,5.19-4.09v-11.15c-.6-1.51-2.38-2.75-4.62-2.75-3.52,0-6.93,2.61-6.93,8.88,0,5.59,2.48,9.11,6.36,9.11Z"/>
        <path class="cls-1" d="M201.05,39.12v-.03h4.55v11.92c.84-2.31,3.08-4.66,6.87-4.66,2.41,0,4.35.77,5.43,2.34.67.94,1.04,2.24,1.04,3.72v10.88c0,2.31,1.41,2.55,1.57,2.55v.03h-6.13v-.03c.17,0,1.57-.23,1.57-2.55v-10.05c0-1.41-.2-2.65-.64-3.58-.7-1.51-1.94-2.31-3.75-2.31-3.05,0-5.66,2.58-5.96,5.49v10.45c0,2.31,1.41,2.55,1.57,2.55v.03h-6.13v-.03c.17,0,1.57-.23,1.57-2.55v-21.64c0-2.31-1.41-2.54-1.57-2.54Z"/>
        <path class="cls-1" d="M223.02,46.73v-.03h4.56v16.61c0,2.31,1.41,2.55,1.57,2.55v.03h-6.13v-.03c.17,0,1.57-.23,1.57-2.55v-14.03c0-2.31-1.41-2.55-1.57-2.55ZM225.93,41.17c.94,0,1.74.8,1.74,1.78s-.8,1.77-1.74,1.77-1.77-.8-1.77-1.77.8-1.78,1.77-1.78Z"/>
        <path class="cls-1" d="M232.36,56.84c0-5.63,3.28-10.48,9.78-10.48,4.32,0,6.5,2.54,6.5,5.09,0,4.15-5.33,5.06-13.23,5.06.1,5.43,2.85,8.81,6.9,8.81,3.65,0,5.39-2.11,6.03-3.38l.03.03c-.44,1.47-2.28,4.25-6.97,4.25-6.67,0-9.04-4.99-9.04-9.38ZM246.06,50.91c0-2.34-1.57-4.02-3.92-4.02-3.85,0-6.53,3.65-6.77,9.14,7.77,0,10.68-2.21,10.68-5.12ZM237.01,45.79c1.74-.4,3.75-1.31,4.79-2.04h.07c1.07.74,3.08,1.64,4.82,2.04l.07-.03c-1.61-.8-3.99-2.85-4.89-4.49h-.07c-.87,1.64-3.25,3.68-4.86,4.49l.07.03ZM241.6,67.63c.87,0,1.57.7,1.57,1.57s-.7,1.61-1.57,1.61-1.61-.7-1.61-1.61.7-1.57,1.61-1.57Z"/>
        <path class="cls-1" d="M277.71,65.85c.17,0,1.57-.23,1.57-2.55v-10.05c0-1.41-.2-2.65-.64-3.58-.7-1.51-1.94-2.31-3.75-2.31-2.95,0-5.26,2.48-5.66,5.33v10.62c0,2.31,1.44,2.55,1.57,2.55v.03h-6.1v-.03c.13,0,1.57-.23,1.57-2.55v-10.05c0-1.41-.2-2.65-.64-3.58-.74-1.51-1.98-2.31-3.75-2.31-3.05,0-5.39,2.58-5.69,5.49v10.45c0,2.31,1.41,2.55,1.57,2.55v.03h-6.13v-.03c.17,0,1.57-.23,1.57-2.55v-14.03c0-2.31-1.41-2.55-1.57-2.55v-.03h4.56v4.32c.84-2.31,2.78-4.66,6.6-4.66,2.38,0,4.35.77,5.43,2.34.44.64.74,1.44.9,2.34.9-2.34,2.88-4.69,6.67-4.69,2.41,0,4.35.77,5.43,2.34.67.94,1.04,2.24,1.04,3.72v10.88c0,2.31,1.41,2.55,1.54,2.55v.03h-6.1v-.03Z"/>
      </g>
      <g>
        <path class="cls-1" d="M10.87,102.95c-1.15.64-2.34,1.12-3.59,1.45s-2.5.49-3.78.49c-.89,0-1.65-.06-2.28-.19-.63-.13-1.04-.29-1.23-.48-.02-.17.13-.5.45-.99.32-.49.59-.8.83-.92.04-.02.08-.04.11-.05.03,0,.07-.02.11-.02.11,0,.26.02.46.06.2.04.56.13,1.07.26,1.17.3,2.09.5,2.76.61.67.11,1.28.16,1.83.16,1.53,0,2.62-.23,3.28-.7.53-.4,1.04-.97,1.53-1.69.21-.34.44-.72.67-1.13.23-.41.47-.89.7-1.42.53-1.08,1.41-3.17,2.64-6.25,1.34-3.31,2.69-6.01,4.05-8.1,1.36-2.08,2.71-3.52,4.05-4.3.19-.13.36-.23.51-.3.15-.07.3-.14.45-.21-.28-.02-.5-.04-.67-.05s-.33-.02-.48-.02c-.36,0-.74.02-1.15.05-.4.03-.84.07-1.31.11-.93.11-2.31.33-4.11.67-.49.09-.89.15-1.21.21-.32.05-.58.09-.8.13-.21.03-.38.05-.51.06-.13.01-.23.02-.32.02s-.13-.04-.13-.13c0-.19.24-.55.73-1.08.53-.53.96-.87,1.27-1.02.21-.08.62-.15,1.21-.19.3-.02.77-.04,1.4-.05.64,0,1.47-.02,2.49-.02.4,0,.8,0,1.18-.02.38-.01.78-.02,1.18-.03s.83-.03,1.28-.06c.45-.03.95-.07,1.5-.11.64-.04,1.1-.07,1.39-.08.29-.01.56-.02.81-.02.11,0,.16.04.16.13,0,.11-.19.38-.57.83-.23.28-.41.45-.53.53-.12.08-.25.11-.4.11-.81,0-1.41.03-1.82.1-.4.06-.74.18-1.02.35-.51.32-1.01.86-1.5,1.63-.49.74-1.09,2.05-1.82,3.92-.04.08-.36.87-.96,2.36-.3.72-.57,1.39-.81,2.01-.25.62-.48,1.2-.72,1.75-.34.89-.71,1.74-1.12,2.55-.4.81-.82,1.57-1.24,2.29,1.34-1.27,2.73-2.58,4.18-3.9,1.44-1.33,2.97-2.7,4.59-4.13s3.03-2.65,4.25-3.68c1.22-1.03,2.24-1.86,3.04-2.5,2.06-1.57,4.16-2.67,6.31-3.28.72-.21,1.44-.37,2.15-.48s1.44-.16,2.18-.16c.25,0,.46.04.62.13.16.09.24.18.24.29,0,.13-.04.29-.13.48-.09.19-.2.39-.35.61-.21.28-.42.5-.61.67-.19.17-.35.25-.48.25-.23,0-.49,0-.78-.02-.29-.01-.75-.05-1.39-.11-.72-.04-1.26-.07-1.63-.1s-.69-.03-.99-.03c-.64,0-1.35.16-2.15.48-.8.32-1.58.76-2.34,1.34-.34.23-.73.53-1.16.88s-.92.75-1.45,1.2c-.53.42-1.3,1.08-2.31,1.96-1.01.88-2.28,1.99-3.81,3.33l.29-.19c.38,2.19.92,4.38,1.62,6.57.74,2.21,1.42,3.85,2.04,4.91.66,1.08,1.38,1.76,2.17,2.04.42-.13.97-.43,1.63-.91.66-.48,1.53-1.21,2.61-2.18l.19.13c-.74.7-1.39,1.3-1.94,1.78-.55.49-1.01.88-1.37,1.18-.36.3-.71.56-1.05.8-.34.23-.67.44-.99.61-.06.02-.15.04-.25.06-.11.02-.22.03-.35.03-.17,0-.33-.01-.49-.03-.16-.02-.27-.05-.33-.1-.3-.23-.61-.55-.94-.96-.33-.4-.63-.84-.91-1.31-.66-1.06-1.32-2.62-1.98-4.68-.34-1.08-.63-2.15-.88-3.19s-.45-2.08-.62-3.12c-.23.21-.62.56-1.15,1.04-.53.48-1.22,1.09-2.07,1.83s-1.58,1.39-2.18,1.94-1.11,1-1.51,1.34c-1.76,2.85-3.62,4.84-5.58,5.99Z"/>
        <path class="cls-1" d="M38.03,103.97c-.15.02-.27.03-.35.03h-.22c-.89,0-1.17-.46-.83-1.37.15-.23.33-.55.56-.94.22-.39.49-.87.81-1.42.66-1.15,1.84-3.25,3.54-6.31.89-1.59,1.64-2.92,2.23-3.98s1.06-1.88,1.4-2.45c.34-.59.62-1.09.84-1.48.22-.39.41-.7.56-.91.81-1.32,1.9-2.6,3.28-3.86,1.38-1.25,2.89-2.32,4.53-3.19,2.93-1.55,5.92-2.33,8.96-2.33.89,0,1.65.02,2.28.05.63.03,1.1.07,1.42.11.26.04.38.18.38.41,0,.3-.18.68-.54,1.15-.36.45-.67.67-.92.67-.32,0-.69-.02-1.12-.05-.43-.03-1.12-.09-2.07-.17-.64-.06-1.2-.12-1.67-.16-.48-.04-.9-.07-1.28-.1s-.71-.04-1-.05-.59-.02-.89-.02c-.81,0-1.47.05-1.98.16s-1,.29-1.47.54c-.81.42-1.65,1.18-2.52,2.26s-1.89,2.62-3.06,4.62c-.38.64-.88,1.49-1.48,2.57-.61,1.07-1.33,2.37-2.18,3.9-.85,1.53-1.53,2.77-2.04,3.71s-.87,1.6-1.08,1.96c.91-1.13,1.9-2.21,2.95-3.25s2.19-2.05,3.43-3.03c2.46-2,4.23-3.07,5.29-3.22,1.08.23,1.51,1.03,1.28,2.38-.23,1.35-1.13,3.33-2.68,5.94-.08.13-.18.29-.29.49-.11.2-.25.45-.42.75-.17.28-.31.52-.43.72-.12.2-.22.38-.3.53-.36.66-.62,1.2-.77,1.61-.15.42-.21.77-.19,1.07.04.68.35,1.1.92,1.27.28-.08.58-.22.92-.41.34-.19.69-.41,1.05-.65.36-.24.71-.5,1.05-.78.34-.28.65-.56.92-.86l.19.22c-.83.81-1.67,1.55-2.53,2.23-.86.68-1.69,1.26-2.5,1.75-.06.02-.14.04-.24.06-.09.02-.21.03-.33.03-.19,0-.37-.01-.54-.03-.17-.02-.28-.05-.32-.1-.34-.25-.62-.63-.84-1.13-.22-.5-.35-.96-.37-1.39-.02-.3.06-.69.25-1.18.19-.49.5-1.11.92-1.85.11-.17.23-.38.37-.64s.3-.54.49-.86c.21-.32.38-.59.51-.81.13-.22.23-.4.32-.53,1.08-1.87,1.77-3.3,2.07-4.29s.21-1.71-.25-2.15c-1.13.25-2.84,1.39-5.13,3.41-1.13,1.02-2.17,2.07-3.12,3.16-.96,1.08-1.84,2.22-2.65,3.41-.25.36-.52.78-.78,1.24-.27.47-.65,1.15-1.16,2.04-.23.45-.4.76-.51.94s-.2.35-.29.49h-.13s-.13.01-.25.03Z"/>
        <path class="cls-1" d="M64.99,103.11c-.49.28-.9.5-1.24.67s-.64.3-.91.38c-.27.08-.5.14-.7.18s-.4.05-.59.05c-.38,0-.76-.06-1.15-.19-.38-.13-.73-.31-1.05-.54-.32-.23-.6-.5-.84-.8-.24-.3-.42-.63-.53-.99-.3-1.08-.32-2.19-.06-3.33.25-1.14.81-2.44,1.66-3.9.59-1.02,1.46-2.08,2.58-3.19,1.1-1.1,2.22-1.96,3.35-2.58,1.4-.77,2.67-1.15,3.79-1.15.7,0,1.37.24,1.99.73.63.49,1.06,1.09,1.29,1.82.28.85.26,1.96-.03,3.31-.3,1.36-.87,2.77-1.72,4.24-.57.98-1.37,1.93-2.39,2.85-1.02.92-2.17,1.74-3.44,2.44ZM60.37,100.65c.4,1.49,1.33,2.23,2.77,2.23.7,0,1.6-.2,2.71-.61.34-.17.71-.52,1.12-1.05.4-.53.81-1.2,1.21-2.01.32-.62.61-1.26.88-1.93s.49-1.33.67-1.99c.18-.66.31-1.29.4-1.9.08-.61.12-1.15.1-1.64-.13-2.02-1.2-3.03-3.22-3.03-.4,0-.73.04-.99.13-.45.28-.95.73-1.5,1.37s-1.08,1.36-1.59,2.17c-.89,1.47-1.57,2.91-2.02,4.32s-.63,2.72-.53,3.94ZM73.88,85.48c0,.38-.23.58-.7.61-.83.15-1.26-.06-1.31-.64-.15-1.06-.31-1.88-.48-2.47-.17-.58-.38-1.06-.64-1.42-.06-.06-.13-.1-.19-.1-.68.53-1.29,1.08-1.82,1.64-.53.56-1.08,1.31-1.66,2.25-.15.21-.36.39-.62.53-.27.14-.57.22-.91.24-.49.13-.75.01-.8-.35-.04-.45.49-1.07,1.59-1.88.55-.42,1.17-.85,1.87-1.27.69-.42,1.45-.85,2.28-1.28.15-.08.3-.06.45.06.38.38.74.77,1.08,1.15.34.38.64.76.91,1.13.27.37.48.71.64,1.02.16.31.26.57.3.78Z"/>
        <path class="cls-1" d="M79.4,99.22c-.15.23-.31.48-.48.73-.17.25-.34.53-.51.83s-.42.72-.76,1.26-.75,1.22-1.24,2.02c-.3.02-.5.04-.62.05-.12.01-.23.02-.33.02-.98,0-1.3-.46-.96-1.37,1.61-2.17,3.02-4.42,4.21-6.76,1.19-2.32,1.75-3.97,1.69-4.97-.02-.32-.12-.6-.3-.84-.18-.24-.42-.41-.72-.49-.49.13-1.08.43-1.77.91-.69.48-1.33,1.04-1.93,1.67l-.22-.22c.83-.81,1.69-1.56,2.6-2.26s1.75-1.27,2.53-1.72c.25-.11.43-.16.54-.16.45,0,.84.33,1.18.99.17.34.31.69.41,1.04s.17.71.19,1.07c.04.6-.13,1.37-.51,2.33-.36.91-1.09,2.33-2.2,4.24,1.7-2.15,3.73-4.22,6.09-6.21,2.32-1.98,4.09-3.14,5.32-3.51,1.08.23,1.51,1.03,1.28,2.38-.23,1.35-1.13,3.33-2.68,5.94-.08.13-.18.29-.29.49-.11.2-.24.45-.41.75-.17.28-.31.52-.43.72-.12.2-.22.38-.3.53-.36.66-.62,1.2-.76,1.61-.15.42-.21.77-.19,1.07.04.68.35,1.1.92,1.27.25-.08.55-.22.88-.4.33-.18.66-.39,1-.64.34-.24.68-.51,1.02-.8.34-.29.66-.58.96-.88l.19.22c-.96.96-1.83,1.75-2.63,2.38s-1.57,1.16-2.31,1.61c-.08.04-.17.07-.24.08s-.21.02-.4.02c-.17,0-.33-.01-.49-.03-.16-.02-.26-.05-.3-.1-.34-.25-.62-.63-.84-1.13-.22-.5-.34-.96-.37-1.39-.02-.3.06-.69.25-1.18.19-.49.5-1.11.92-1.85.11-.17.23-.38.37-.64.14-.25.3-.54.49-.86.21-.32.38-.59.51-.81.13-.22.23-.4.32-.53.53-.93.97-1.74,1.32-2.42.35-.68.6-1.26.75-1.75.15-.49.2-.89.16-1.21-.04-.32-.18-.59-.41-.83-1.15.34-2.79,1.49-4.94,3.44-2.15,1.91-4,4.02-5.55,6.31Z"/>
        <path class="cls-1" d="M104.35,112.45c-.77,1.3-2.18,2.36-4.24,3.19-2.02.83-4.15,1.22-6.41,1.18-1.59-.02-2.96-.25-4.11-.7s-1.89-1.07-2.23-1.88c-.28-.66-.24-1.31.1-1.94.25-.57.75-1.19,1.48-1.85.73-.66,1.81-1.47,3.23-2.42.04-.02.25-.15.62-.4s.93-.61,1.67-1.1c.72-.47,1.37-.9,1.94-1.29.57-.39,1.07-.74,1.5-1.04h-.19c-.08,0-.17-.01-.24-.03-.07-.02-.14-.04-.21-.06-.76-.55-1.16-1.6-1.18-3.16-.02-1.53.31-3.13.99-4.81.32-.76.73-1.51,1.24-2.23.51-.72,1.09-1.41,1.75-2.06.66-.65,1.38-1.24,2.15-1.77s1.58-.99,2.41-1.37c.59-.28,1.17-.49,1.74-.64.56-.15,1.07-.22,1.51-.22.74,0,1.35.15,1.82.45.23.15.54.41.91.78.37.37.8.86,1.29,1.45.49-.4.98-.82,1.47-1.26.49-.43.91-.82,1.27-1.16l.22.13c-.53.64-1.04,1.27-1.51,1.91-.48.64-.91,1.25-1.29,1.85-1.36,2.17-2.5,4.24-3.41,6.23-.91,1.99-1.64,3.98-2.17,5.98-.15.55-.29,1.12-.43,1.71-.14.58-.29,1.39-.46,2.41-.13.66-.25,1.22-.35,1.67-.11.46-.2.82-.29,1.1-.08.28-.18.53-.29.75-.11.22-.21.43-.32.62ZM90.1,113.98c.34.81.96,1.43,1.85,1.86s2.01.65,3.35.65c1.17,0,2.3-.31,3.41-.94,1.1-.63,2.06-1.51,2.87-2.66.28-.45.53-.99.77-1.63.21-.64.5-1.75.86-3.35.13-.64.24-1.2.35-1.69.11-.49.21-.93.32-1.32s.21-.76.3-1.1c.1-.34.2-.67.3-.99.49-1.47,1.03-2.84,1.63-4.11.59-1.27,1.29-2.55,2.07-3.82-.76.79-1.57,1.6-2.41,2.44-.84.84-1.74,1.71-2.69,2.6-.96.89-1.81,1.68-2.55,2.36s-1.4,1.26-1.98,1.75c-2.21,1.59-3.61,2.61-4.21,3.06-.3.23-.57.46-.83.67-.25.21-.5.42-.73.64-.66.57-1.2,1.11-1.62,1.61s-.74.98-.96,1.45c-.4.91-.44,1.75-.1,2.52ZM99.44,95.71c-.51,1.59-.77,3-.78,4.21-.01,1.21.22,2.09.69,2.65,1.23-.83,3.02-2.36,5.35-4.59,2.34-2.21,4.19-4.21,5.55-5.99-1.19-1.47-2.05-2.4-2.58-2.8-.49-.38-1.01-.57-1.56-.57-.38,0-.84.12-1.37.35-1.08.47-2.12,1.34-3.12,2.61-.49.62-.91,1.27-1.28,1.98s-.66,1.42-.89,2.17Z"/>
        <path class="cls-1" d="M133.71,112.45c-.77,1.3-2.18,2.36-4.24,3.19-2.02.83-4.15,1.22-6.41,1.18-1.59-.02-2.96-.25-4.11-.7s-1.89-1.07-2.23-1.88c-.28-.66-.24-1.31.1-1.94.25-.57.75-1.19,1.48-1.85.73-.66,1.81-1.47,3.23-2.42.04-.02.25-.15.62-.4s.93-.61,1.67-1.1c.72-.47,1.37-.9,1.94-1.29.57-.39,1.07-.74,1.5-1.04h-.19c-.08,0-.17-.01-.24-.03-.07-.02-.14-.04-.21-.06-.76-.55-1.16-1.6-1.18-3.16-.02-1.53.31-3.13.99-4.81.32-.76.73-1.51,1.24-2.23.51-.72,1.09-1.41,1.75-2.06.66-.65,1.38-1.24,2.15-1.77s1.58-.99,2.41-1.37c.59-.28,1.17-.49,1.74-.64.56-.15,1.07-.22,1.51-.22.74,0,1.35.15,1.82.45.23.15.54.41.91.78.37.37.8.86,1.29,1.45.49-.4.98-.82,1.47-1.26.49-.43.91-.82,1.27-1.16l.22.13c-.53.64-1.04,1.27-1.51,1.91-.48.64-.91,1.25-1.29,1.85-1.36,2.17-2.5,4.24-3.41,6.23-.91,1.99-1.64,3.98-2.17,5.98-.15.55-.29,1.12-.43,1.71-.14.58-.29,1.39-.46,2.41-.13.66-.25,1.22-.35,1.67-.11.46-.2.82-.29,1.1-.08.28-.18.53-.29.75-.11.22-.21.43-.32.62ZM119.46,113.98c.34.81.96,1.43,1.85,1.86s2.01.65,3.35.65c1.17,0,2.3-.31,3.41-.94,1.1-.63,2.06-1.51,2.87-2.66.28-.45.53-.99.77-1.63.21-.64.5-1.75.86-3.35.13-.64.24-1.2.35-1.69.11-.49.21-.93.32-1.32s.21-.76.3-1.1c.1-.34.2-.67.3-.99.49-1.47,1.03-2.84,1.63-4.11.59-1.27,1.29-2.55,2.07-3.82-.76.79-1.57,1.6-2.41,2.44-.84.84-1.74,1.71-2.69,2.6-.96.89-1.81,1.68-2.55,2.36s-1.4,1.26-1.98,1.75c-2.21,1.59-3.61,2.61-4.21,3.06-.3.23-.57.46-.83.67-.25.21-.5.42-.73.64-.66.57-1.2,1.11-1.62,1.61s-.74.98-.96,1.45c-.4.91-.44,1.75-.1,2.52ZM128.8,95.71c-.51,1.59-.77,3-.78,4.21-.01,1.21.22,2.09.69,2.65,1.23-.83,3.02-2.36,5.35-4.59,2.34-2.21,4.19-4.21,5.55-5.99-1.19-1.47-2.05-2.4-2.58-2.8-.49-.38-1.01-.57-1.56-.57-.38,0-.84.12-1.37.35-1.08.47-2.12,1.34-3.12,2.61-.49.62-.91,1.27-1.28,1.98s-.66,1.42-.89,2.17Z"/>
        <path class="cls-1" d="M147.47,104.09s-.12.07-.22.08c-.11.01-.29.02-.54.02-.21,0-.42-.01-.62-.03-.2-.02-.32-.05-.37-.1-.36-.28-.66-.64-.91-1.1-.24-.46-.38-.88-.4-1.26-.02-.38.11-.9.38-1.56.15-.34.43-.87.86-1.58.42-.71.98-1.63,1.66-2.76.11-.19.29-.49.56-.91.27-.41.61-.93,1.04-1.55.83-1.27,1.31-2.16,1.43-2.65.06-.28-.01-.56-.22-.86-.21-.3-.46-.48-.73-.54-.38.13-.99.48-1.82,1.05-.79.51-1.5,1.05-2.14,1.63l-.22-.16c.3-.28.65-.58,1.05-.92.4-.34.87-.71,1.4-1.12.53-.4,1.03-.77,1.5-1.1.47-.33.9-.61,1.31-.84.17-.11.35-.16.54-.17s.36.02.51.08c.3.15.64.54,1.02,1.18.34.59.51,1.12.51,1.56,0,.57-.55,1.65-1.66,3.22-.55.79-.98,1.4-1.28,1.83s-.47.7-.51.78c-.17.25-.43.67-.76,1.24-.36.55-.62.97-.77,1.24-.38.66-.66,1.2-.83,1.63-.17.42-.25.78-.22,1.05.02.23.16.46.42.69.25.22.57.39.96.49.49-.17,1.09-.51,1.82-1.04.72-.52,1.39-1.1,2.01-1.74l.19.22c-.96.96-1.83,1.75-2.63,2.38s-1.57,1.16-2.31,1.61ZM154.04,85.51c-.34,0-.56-.02-.65-.05-.1-.03-.19-.09-.27-.18-.15-.25-.05-.74.29-1.47.36-.76.71-1.22,1.05-1.37.06-.06.22-.11.46-.14.24-.03.5-.05.78-.05.25,0,.51.03.78.1.27.06.42.13.46.19.02.4-.2.92-.67,1.56-.47.62-.89,1.03-1.27,1.24-.19.11-.51.16-.96.16Z"/>
        <path class="cls-1" d="M157.99,104.09c-.11.08-.3.13-.57.13-.13,0-.27-.01-.41-.03-.15-.02-.25-.05-.29-.1-.74-.53-1.13-1.58-1.15-3.16-.04-1.57.28-3.19.96-4.84.59-1.47,1.56-2.87,2.9-4.21s2.76-2.33,4.4-3.09c1.3-.62,2.41-.92,3.35-.92s1.68.17,2.23.51c.59.32,1.29.92,2.1,1.82.28-.23.64-.57,1.1-1,.46-.43.83-.82,1.13-1.16.19-.19.29-.17.29.06-.81,1.02-1.61,2.13-2.41,3.33s-1.6,2.51-2.41,3.94c-1.62,2.83-2.39,4.78-2.33,5.86.02.28.14.55.37.81.22.27.48.44.78.53.25-.13.55-.29.89-.48s.68-.41,1.02-.67c.34-.26.68-.52,1.02-.8.34-.28.64-.56.89-.86l.19.22c-1.04,1.02-1.96,1.85-2.76,2.5s-1.56,1.18-2.28,1.61c-.06.02-.16.04-.29.06-.13.02-.28.03-.45.03-.23,0-.46-.02-.69-.05-.22-.03-.34-.06-.37-.08-.28-.32-.51-.72-.7-1.21-.19-.49-.3-.93-.32-1.34-.02-.42.06-.91.24-1.47.18-.55.48-1.18.91-1.88.25-.4.61-.95,1.05-1.63.23-.34.42-.63.57-.86.15-.23.27-.4.35-.51-.89.96-1.89,1.98-3,3.08-1.1,1.09-2.21,2.15-3.31,3.17-.79.72-1.4,1.27-1.85,1.66-.45.38-.84.72-1.18,1.02ZM158.88,95.68c-.49,1.53-.75,2.92-.78,4.17-.03,1.25.17,2.14.62,2.65.38-.08,1.04-.52,1.98-1.31.62-.51,1.29-1.12,2.02-1.82s1.55-1.5,2.44-2.39c1.74-1.76,3.28-3.46,4.62-5.1-.93-1.19-1.74-2.03-2.41-2.52-.67-.49-1.35-.73-2.06-.73-.45,0-.9.12-1.37.35-1.04.49-2.02,1.35-2.93,2.58-.47.62-.88,1.27-1.24,1.96s-.66,1.41-.89,2.15Z"/>
        <path class="cls-1" d="M179.15,99.22c-.15.23-.31.48-.48.73-.17.25-.34.53-.51.83s-.42.72-.76,1.26-.75,1.22-1.24,2.02c-.3.02-.5.04-.62.05-.12.01-.23.02-.33.02-.98,0-1.3-.46-.96-1.37,1.61-2.17,3.02-4.42,4.21-6.76,1.19-2.32,1.75-3.97,1.69-4.97-.02-.32-.12-.6-.3-.84-.18-.24-.42-.41-.72-.49-.49.13-1.08.43-1.77.91-.69.48-1.33,1.04-1.93,1.67l-.22-.22c.83-.81,1.69-1.56,2.6-2.26s1.75-1.27,2.53-1.72c.25-.11.43-.16.54-.16.45,0,.84.33,1.18.99.17.34.31.69.41,1.04s.17.71.19,1.07c.04.6-.13,1.37-.51,2.33-.36.91-1.09,2.33-2.2,4.24,1.7-2.15,3.73-4.22,6.09-6.21,2.32-1.98,4.09-3.14,5.32-3.51,1.08.23,1.51,1.03,1.28,2.38-.23,1.35-1.13,3.33-2.68,5.94-.08.13-.18.29-.29.49-.11.2-.24.45-.41.75-.17.28-.31.52-.43.72-.12.2-.22.38-.3.53-.36.66-.62,1.2-.76,1.61-.15.42-.21.77-.19,1.07.04.68.35,1.1.92,1.27.25-.08.55-.22.88-.4.33-.18.66-.39,1-.64.34-.24.68-.51,1.02-.8.34-.29.66-.58.96-.88l.19.22c-.96.96-1.83,1.75-2.63,2.38s-1.57,1.16-2.31,1.61c-.08.04-.17.07-.24.08s-.21.02-.4.02c-.17,0-.33-.01-.49-.03-.16-.02-.26-.05-.3-.1-.34-.25-.62-.63-.84-1.13-.22-.5-.34-.96-.37-1.39-.02-.3.06-.69.25-1.18.19-.49.5-1.11.92-1.85.11-.17.23-.38.37-.64.14-.25.3-.54.49-.86.21-.32.38-.59.51-.81.13-.22.23-.4.32-.53.53-.93.97-1.74,1.32-2.42.35-.68.6-1.26.75-1.75.15-.49.2-.89.16-1.21-.04-.32-.18-.59-.41-.83-1.15.34-2.79,1.49-4.94,3.44-2.15,1.91-4,4.02-5.55,6.31Z"/>
        <path class="cls-1" d="M214.72,99.31c-.42.36-.9.76-1.42,1.21-.52.45-1.11.91-1.77,1.4-1.32,1-2.37,1.73-3.16,2.2-.06.02-.14.04-.24.06-.1.02-.21.03-.33.03-.17,0-.34-.01-.51-.03-.17-.02-.28-.05-.32-.1-.3-.23-.55-.6-.75-1.1-.2-.5-.31-1.01-.33-1.55-.04-.55.08-1.24.38-2.07.3-.83.79-1.82,1.47-2.96.59-1.02,1.22-2.07,1.88-3.14s1.38-2.25,2.17-3.52h-.78c-.18,0-.39.01-.62.03-.49,0-.75-.01-.8-.03-.09-.02-.13-.06-.13-.11s.05-.11.16-.17c.66-.38,1.19-.69,1.59-.91.4-.22.67-.38.8-.46.96-.57,1.85-1.15,2.69-1.72.84-.57,1.61-1.13,2.31-1.66.08-.08.16-.11.24-.08.07.03.08.1.02.21-.11.19-.25.43-.45.72-.19.29-.4.62-.64,1-.49.74-.81,1.25-.96,1.53.7,0,1.39,0,2.07-.03.68-.02,1.4-.04,2.17-.06.13-.02.21-.03.25-.03h.1c.06,0,.1.04.1.13,0,.06-.07.19-.21.37-.14.18-.3.37-.49.56-.21.21-.44.4-.67.56-.23.16-.42.25-.54.27h-.35c-.62-.02-1.21-.04-1.77-.06-.56-.02-1.13-.03-1.71-.03-.89,1.4-1.68,2.68-2.37,3.83s-1.33,2.27-1.93,3.38c-.3.55-.54,1.03-.73,1.43-.19.4-.35.76-.46,1.08-.12.32-.19.62-.22.91s-.05.57-.05.84c.02.38.11.71.27.97.16.27.38.44.65.53.21-.08.52-.24.91-.46.39-.22.88-.54,1.45-.94.59-.4,1.12-.79,1.58-1.15s.87-.7,1.23-1.02l.22.16Z"/>
        <path class="cls-1" d="M219.95,104.09c-.15.02-.27.03-.35.03h-.26c-.96,0-1.26-.46-.92-1.37,1.61-2.17,3.02-4.42,4.21-6.76,1.19-2.32,1.75-3.97,1.69-4.97-.02-.32-.12-.6-.3-.84-.18-.24-.42-.41-.72-.49-.49.13-1.09.44-1.8.92-.71.49-1.35,1.04-1.93,1.66l-.22-.22c.85-.83,1.73-1.59,2.63-2.29s1.75-1.26,2.53-1.69c.25-.11.43-.16.54-.16.47.02.87.36,1.21,1.02.34.64.53,1.33.57,2.07.02.36-.05.81-.21,1.34s-.43,1.2-.81,2.01c.72-.96,1.37-1.77,1.94-2.45.57-.68,1.07-1.24,1.5-1.69.45-.47.88-.85,1.29-1.16.42-.31.8-.55,1.16-.72.19-.08.38-.16.56-.22.18-.06.34-.11.49-.13.3-.04.62-.06.97-.06s.72.01,1.1.03c.79.02,1.2.1,1.24.22-.02.34-.29.81-.8,1.4-.51.57-.91.89-1.21.96-.13,0-.27-.01-.41-.03-.15-.02-.39-.06-.73-.13-.59-.08-1.07-.14-1.43-.17s-.71-.05-1.05-.05c-.08.02-.18.06-.29.11-.11.05-.21.1-.32.14-.36.17-.72.43-1.08.78s-.74.77-1.15,1.26c-.77.96-2.2,3.21-4.3,6.76-.11.17-.22.36-.35.57-.13.21-.32.53-.57.96-.53.87-.94,1.54-1.23,2.01-.29.47-.56.91-.81,1.34h-.13s-.13.01-.25.03Z"/>
        <path class="cls-1" d="M248.7,94.6c-.98,1.25-1.96,2.42-2.95,3.51-.99,1.08-2,2.1-3.04,3.06-2.06,1.89-3.59,2.93-4.59,3.12-.57-.08-1.11-.32-1.61-.7s-.81-.85-.94-1.4c-.06-.49.39-1.54,1.37-3.16.49-.81.89-1.48,1.21-2.02s.55-.94.7-1.2c.93-1.68,1.52-2.84,1.75-3.47.21-.59.31-1.08.29-1.47-.02-.28-.12-.52-.3-.73-.18-.21-.43-.36-.75-.45-.49.13-1.09.44-1.8.92-.71.49-1.35,1.04-1.93,1.66l-.22-.22c.76-.74,1.61-1.48,2.55-2.2.93-.72,1.81-1.32,2.61-1.78.19-.11.38-.16.57-.16.47.04.88.39,1.24,1.05.4.68.62,1.36.64,2.04,0,.32-.14.77-.41,1.34-.25.59-.94,1.89-2.04,3.89-.23.45-.72,1.3-1.47,2.55-.72,1.23-1.16,2.08-1.31,2.55-.02.32.08.59.32.83.23.23.55.4.96.51.79,0,2.19-.98,4.21-2.93,1.98-1.93,3.9-4.23,5.77-6.88.25-.36.51-.76.78-1.21s.63-1.09,1.1-1.94c.23-.45.4-.75.49-.92s.19-.32.27-.45c.32-.11.6-.18.84-.22.24-.04.45-.06.62-.06.47,0,.74.11.83.32.08.15.1.35.03.61.11-.02.2-.04.27-.05.07,0,.15-.03.24-.05.64-.19,1.25-.59,1.85-1.21.13-.17.23-.32.32-.46.08-.14.19-.37.32-.69.08-.3.17-.53.25-.68.08-.16.17-.28.25-.37.28-.3.59-.5.96-.62.36-.12.63-.1.8.05.17.11.19.36.05.76-.14.4-.42.85-.84,1.34-.83.96-1.76,1.6-2.8,1.94-.25.08-.53.15-.81.21-.29.05-.59.09-.91.11l-.03.1c-.49.7-1.05,1.56-1.69,2.57-.64,1.01-1.24,2-1.82,2.98-1.81,3.14-2.76,5.29-2.87,6.44-.02.25.1.5.35.75s.56.42.92.53c.25-.08.55-.22.88-.4.33-.18.66-.39,1-.64.34-.24.68-.51,1.02-.8.34-.29.66-.58.96-.88l.19.22c-.96.96-1.83,1.75-2.63,2.38-.8.63-1.57,1.16-2.31,1.61-.06.02-.16.04-.29.06-.13.02-.28.03-.45.03-.21,0-.43-.01-.65-.03-.22-.02-.36-.05-.4-.1-.32-.23-.59-.59-.81-1.07-.22-.48-.36-.96-.4-1.45-.04-.42.11-1.02.45-1.79.17-.4.49-1.03.97-1.88.48-.85,1.1-1.94,1.86-3.28Z"/>
        <path class="cls-1" d="M260.2,99.22c-.15.23-.31.48-.48.73-.17.25-.34.53-.51.83s-.42.72-.76,1.26-.75,1.22-1.24,2.02c-.3.02-.5.04-.62.05-.12.01-.23.02-.33.02-.98,0-1.3-.46-.96-1.37,1.61-2.17,3.02-4.42,4.21-6.76,1.19-2.32,1.75-3.97,1.69-4.97-.02-.32-.12-.6-.3-.84-.18-.24-.42-.41-.72-.49-.49.13-1.08.43-1.77.91-.69.48-1.33,1.04-1.93,1.67l-.22-.22c.83-.81,1.69-1.56,2.6-2.26s1.75-1.27,2.53-1.72c.25-.11.43-.16.54-.16.45,0,.84.33,1.18.99.17.34.31.69.41,1.04s.17.71.19,1.07c.04.6-.13,1.37-.51,2.33-.36.91-1.09,2.33-2.2,4.24,1.7-2.15,3.73-4.22,6.09-6.21,2.32-1.98,4.09-3.14,5.32-3.51,1.08.23,1.51,1.03,1.28,2.38-.23,1.35-1.13,3.33-2.68,5.94-.08.13-.18.29-.29.49-.11.2-.24.45-.41.75-.17.28-.31.52-.43.72-.12.2-.22.38-.3.53-.36.66-.62,1.2-.76,1.61-.15.42-.21.77-.19,1.07.04.68.35,1.1.92,1.27.25-.08.55-.22.88-.4.33-.18.66-.39,1-.64.34-.24.68-.51,1.02-.8.34-.29.66-.58.96-.88l.19.22c-.96.96-1.83,1.75-2.63,2.38s-1.57,1.16-2.31,1.61c-.08.04-.17.07-.24.08s-.21.02-.4.02c-.17,0-.33-.01-.49-.03-.16-.02-.26-.05-.3-.1-.34-.25-.62-.63-.84-1.13-.22-.5-.34-.96-.37-1.39-.02-.3.06-.69.25-1.18.19-.49.5-1.11.92-1.85.11-.17.23-.38.37-.64.14-.25.3-.54.49-.86.21-.32.38-.59.51-.81.13-.22.23-.4.32-.53.53-.93.97-1.74,1.32-2.42.35-.68.6-1.26.75-1.75.15-.49.2-.89.16-1.21-.04-.32-.18-.59-.41-.83-1.15.34-2.79,1.49-4.94,3.44-2.15,1.91-4,4.02-5.55,6.31Z"/>
        <path class="cls-1" d="M285.16,112.45c-.77,1.3-2.18,2.36-4.24,3.19-2.02.83-4.15,1.22-6.41,1.18-1.59-.02-2.96-.25-4.11-.7s-1.89-1.07-2.23-1.88c-.28-.66-.24-1.31.1-1.94.25-.57.75-1.19,1.48-1.85.73-.66,1.81-1.47,3.23-2.42.04-.02.25-.15.62-.4s.93-.61,1.67-1.1c.72-.47,1.37-.9,1.94-1.29.57-.39,1.07-.74,1.5-1.04h-.19c-.08,0-.17-.01-.24-.03-.07-.02-.14-.04-.21-.06-.76-.55-1.16-1.6-1.18-3.16-.02-1.53.31-3.13.99-4.81.32-.76.73-1.51,1.24-2.23.51-.72,1.09-1.41,1.75-2.06.66-.65,1.38-1.24,2.15-1.77s1.58-.99,2.41-1.37c.59-.28,1.17-.49,1.74-.64.56-.15,1.07-.22,1.51-.22.74,0,1.35.15,1.82.45.23.15.54.41.91.78.37.37.8.86,1.29,1.45.49-.4.98-.82,1.47-1.26.49-.43.91-.82,1.27-1.16l.22.13c-.53.64-1.04,1.27-1.51,1.91-.48.64-.91,1.25-1.29,1.85-1.36,2.17-2.5,4.24-3.41,6.23-.91,1.99-1.64,3.98-2.17,5.98-.15.55-.29,1.12-.43,1.71-.14.58-.29,1.39-.46,2.41-.13.66-.25,1.22-.35,1.67-.11.46-.2.82-.29,1.1-.08.28-.18.53-.29.75-.11.22-.21.43-.32.62ZM270.91,113.98c.34.81.96,1.43,1.85,1.86s2.01.65,3.35.65c1.17,0,2.3-.31,3.41-.94,1.1-.63,2.06-1.51,2.87-2.66.28-.45.53-.99.77-1.63.21-.64.5-1.75.86-3.35.13-.64.24-1.2.35-1.69.11-.49.21-.93.32-1.32s.21-.76.3-1.1c.1-.34.2-.67.3-.99.49-1.47,1.03-2.84,1.63-4.11.59-1.27,1.29-2.55,2.07-3.82-.76.79-1.57,1.6-2.41,2.44-.84.84-1.74,1.71-2.69,2.6-.96.89-1.81,1.68-2.55,2.36s-1.4,1.26-1.98,1.75c-2.21,1.59-3.61,2.61-4.21,3.06-.3.23-.57.46-.83.67-.25.21-.5.42-.73.64-.66.57-1.2,1.11-1.62,1.61s-.74.98-.96,1.45c-.4.91-.44,1.75-.1,2.52ZM280.25,95.71c-.51,1.59-.77,3-.78,4.21-.01,1.21.22,2.09.69,2.65,1.23-.83,3.02-2.36,5.35-4.59,2.34-2.21,4.19-4.21,5.55-5.99-1.19-1.47-2.05-2.4-2.58-2.8-.49-.38-1.01-.57-1.56-.57-.38,0-.84.12-1.37.35-1.08.47-2.12,1.34-3.12,2.61-.49.62-.91,1.27-1.28,1.98s-.66,1.42-.89,2.17Z"/>
        <path class="cls-1" d="M316.3,102.63c-1.08.59-2.02,1.03-2.82,1.31-.8.28-1.49.41-2.09.41-.74,0-1.48-.3-2.2-.89-.55-.45-1.03-.97-1.43-1.56-.09.13-.18.27-.27.43s-.25.4-.46.72c-.17.28-.29.47-.37.59-.08.12-.13.22-.18.3h-.13s-.12.01-.22.03c-.15.02-.27.03-.35.03h-.22c-.94,0-1.21-.46-.83-1.37.15-.23.33-.55.56-.94.22-.39.49-.87.81-1.42.66-1.15,1.84-3.25,3.54-6.31.89-1.59,1.64-2.92,2.23-3.98.59-1.06,1.06-1.88,1.4-2.45.34-.59.62-1.09.84-1.48.22-.39.41-.7.56-.91.81-1.32,1.9-2.6,3.28-3.86,1.38-1.25,2.89-2.32,4.53-3.19,2.93-1.55,5.92-2.33,8.96-2.33.89,0,1.65.02,2.28.05.63.03,1.1.07,1.42.11.25.04.38.18.38.41,0,.3-.18.68-.54,1.15-.36.45-.67.67-.92.67-.32,0-.69-.02-1.12-.05-.43-.03-1.12-.09-2.07-.17-.64-.06-1.2-.12-1.67-.16-.48-.04-.9-.07-1.27-.1-.37-.02-.71-.04-1-.05-.3-.01-.6-.02-.89-.02-.81,0-1.47.05-1.98.16s-1,.29-1.47.54c-.81.42-1.65,1.18-2.52,2.26-.87,1.08-1.89,2.62-3.06,4.62-.3.51-.64,1.09-1.02,1.75-.38.66-.81,1.39-1.27,2.2-.45.81-1.06,1.91-1.83,3.32-.78,1.4-1.74,3.13-2.88,5.19.47-.47.97-.95,1.5-1.45.53-.5,1.1-1.03,1.72-1.59.62-.56,1.29-1.17,2.02-1.83.73-.66,1.55-1.38,2.44-2.17,1.02-.89,1.94-1.59,2.76-2.1.82-.51,1.43-.77,1.83-.77.36.06.72.33,1.08.8.36.47.62.99.76,1.56.11.4.15.86.13,1.37-.02.51-.09,1.04-.21,1.58-.12.54-.28,1.09-.49,1.64-.21.55-.46,1.08-.73,1.59-1.32,2.34-3.48,4.45-6.5,6.34ZM320.54,89.34c-.25,0-.63.14-1.13.41-.5.28-1.03.65-1.58,1.12-.91.74-1.8,1.51-2.66,2.31s-1.72,1.61-2.57,2.44c-1.66,1.59-2.91,2.96-3.76,4.11.7,1.15,1.43,1.99,2.18,2.52.75.53,1.59.8,2.5.8.53,0,1-.05,1.42-.14.42-.1.82-.25,1.23-.46,1.15-.96,2-1.81,2.55-2.55.55-.74,1.06-1.63,1.53-2.65.57-1.27.97-2.5,1.2-3.67.22-1.17.25-2.11.08-2.84-.08-.38-.2-.67-.33-.88-.14-.2-.36-.38-.65-.53Z"/>
        <path class="cls-1" d="M329.24,104.09c-.11.08-.3.13-.57.13-.13,0-.27-.01-.41-.03-.15-.02-.25-.05-.29-.1-.74-.53-1.13-1.58-1.15-3.16-.04-1.57.28-3.19.96-4.84.59-1.47,1.56-2.87,2.9-4.21s2.76-2.33,4.4-3.09c1.3-.62,2.41-.92,3.35-.92s1.68.17,2.23.51c.59.32,1.29.92,2.1,1.82.28-.23.64-.57,1.1-1,.46-.43.83-.82,1.13-1.16.19-.19.29-.17.29.06-.81,1.02-1.61,2.13-2.41,3.33s-1.6,2.51-2.41,3.94c-1.62,2.83-2.39,4.78-2.33,5.86.02.28.14.55.37.81.22.27.48.44.78.53.25-.13.55-.29.89-.48s.68-.41,1.02-.67c.34-.26.68-.52,1.02-.8.34-.28.64-.56.89-.86l.19.22c-1.04,1.02-1.96,1.85-2.76,2.5s-1.56,1.18-2.28,1.61c-.06.02-.16.04-.29.06-.13.02-.28.03-.45.03-.23,0-.46-.02-.69-.05-.22-.03-.34-.06-.37-.08-.28-.32-.51-.72-.7-1.21-.19-.49-.3-.93-.32-1.34-.02-.42.06-.91.24-1.47.18-.55.48-1.18.91-1.88.25-.4.61-.95,1.05-1.63.23-.34.42-.63.57-.86.15-.23.27-.4.35-.51-.89.96-1.89,1.98-3,3.08-1.1,1.09-2.21,2.15-3.31,3.17-.79.72-1.4,1.27-1.85,1.66-.45.38-.84.72-1.18,1.02ZM330.13,95.68c-.49,1.53-.75,2.92-.78,4.17-.03,1.25.17,2.14.62,2.65.38-.08,1.04-.52,1.98-1.31.62-.51,1.29-1.12,2.02-1.82s1.55-1.5,2.44-2.39c1.74-1.76,3.28-3.46,4.62-5.1-.93-1.19-1.74-2.03-2.41-2.52-.67-.49-1.35-.73-2.06-.73-.45,0-.9.12-1.37.35-1.04.49-2.02,1.35-2.93,2.58-.47.62-.88,1.27-1.24,1.96s-.66,1.41-.89,2.15ZM340.55,86.18s-.09-.02-.13-.06c-.36-.45-.78-.9-1.24-1.35s-1.08-.99-1.85-1.61c-.25-.19-.42-.32-.49-.4s-.13-.13-.17-.18c-.11-.08-.21-.25-.3-.51s-.13-.46-.11-.61c.04-.13.15-.25.32-.38.17-.13.33-.19.48-.19.28,0,.59.25.96.73.02.04.06.11.11.19.05.08.14.27.27.54.45.89.84,1.61,1.18,2.15.34.54.69,1.03,1.05,1.45.02.02.03.05.03.09,0,.09-.03.13-.1.13Z"/>
        <path class="cls-1" d="M347.15,108.08c-1.87,1.72-3.79,3.02-5.77,3.9-1.98.88-3.96,1.32-5.96,1.32-.28,0-.52-.03-.73-.1-.21-.06-.36-.16-.45-.29-.06-.06-.09-.18-.09-.35,0-.23.13-.53.38-.88s.54-.64.86-.88h3.54c.87,0,1.67-.05,2.41-.16.73-.11,1.42-.27,2.06-.49.64-.22,1.25-.52,1.83-.89.58-.37,1.16-.82,1.74-1.35.32-.28.58-.51.78-.7.2-.19.38-.36.54-.49.16-.14.29-.27.4-.4.11-.13.22-.25.35-.38.66-1.21,1.17-3.05,1.53-5.51.38-2.49.57-4.98.57-7.49,0-.83-.05-1.49-.16-1.98-.11-.49-.27-.87-.48-1.15-.21-.23-.52-.34-.92-.32-.25.11-.71.39-1.37.86-.6.38-1.15.8-1.66,1.24l-.19-.19c.64-.57,1.38-1.17,2.23-1.8.85-.63,1.63-1.14,2.33-1.54.21-.13.45-.19.7-.19.36,0,.69.15.99.45.34.36.59.89.75,1.58.16.69.24,1.58.24,2.66,0,.87-.03,1.77-.1,2.71-.06.93-.17,1.92-.32,2.96-.25,2.08-.58,3.61-.99,4.59l3.35-3.51c2.36-2.42,3.92-4.15,4.69-5.2.85-1.13,1.29-1.99,1.31-2.58-.02-.47-.15-.87-.38-1.21s-.54-.58-.92-.73c-.79.25-1.82.95-3.09,2.07l-.19-.19c.4-.4,1.01-.91,1.82-1.53.4-.3.79-.57,1.15-.83s.71-.48,1.05-.67c.51-.3.91-.5,1.21-.61.36-.11.72.11,1.08.64.4.49.52,1.01.35,1.56-.19.43-.46.89-.81,1.4s-.77,1.07-1.26,1.69c-.49.62-1.21,1.45-2.17,2.5-.96,1.05-2.16,2.34-3.6,3.87-1.34,1.4-2.42,2.52-3.24,3.36-.82.84-1.4,1.43-1.74,1.77-.96.93-1.69,1.64-2.2,2.1-.49.49-.97.93-1.43,1.34Z"/>
      </g>
    </g>
    <g>
      <path class="cls-1" d="M162.4,17.68c-.5.55-.17,1.43.56,1.51,4.97.57,11.44.8,18.88-.22,7.78-1.07,14.19-3.18,18.95-5.17.69-.29.74-1.25.09-1.62L179.83.18c-.55-.31-1.24-.2-1.66.26-5.25,5.75-10.51,11.49-15.76,17.24Z"/>
      <path class="cls-1" d="M166.31,21.74c4.05.55,9.7.88,16.31-.07,6.55-.94,11.82-2.83,15.54-4.47-2.99,1.79-8.23,4.42-15.28,5.46-7.25,1.07-13.17-.03-16.57-.92Z"/>
    </g>
  </g>
</svg>