<?xml version="1.0" encoding="UTF-8"?>
<svg id="Layer_2" data-name="Layer 2" xmlns="http://www.w3.org/2000/svg" viewBox="0 0 436.7 192.34">
  <g id="Layer_1-2" data-name="Layer 1">
    <g>
      <g>
        <g>
          <path d="M57.87,66.02h-.05v-7.62h29.42v7.62h-.05c0-.64-.44-6.92-4.7-6.92h-7.71v33.48c0,3.96,2.42,4.35,2.67,4.35v.05h-9.84v-.05c.25,0,2.67-.4,2.67-4.35v-33.48h-7.76c-4.25,0-4.65,6.28-4.65,6.92Z" style="fill: #876046;"/>
          <path d="M90.81,94.01c-.94-1.38-1.48-3.31-1.48-5.49v-16.07c0-3.41-2.13-3.76-2.32-3.76v-.05h6.68v18.64c0,2.08.3,3.91.94,5.29,1.09,2.27,2.92,3.46,5.54,3.46,4.5,0,8.41-3.86,8.85-8.16v-15.43c0-3.41-2.13-3.76-2.32-3.76v-.05h6.68v1.93c.84-.49,1.14-1.14,1.24-1.63.05-.49,0-1.53-1.53-2.13v-.05l3.61-1.98c.69.74.99,1.83.79,2.87-.4,1.98-2.67,3.02-4.1,3.46v22.06c0,3.41,2.13,3.76,2.32,3.76v.05h-6.68v-6.38c-1.24,3.41-4.55,6.87-10.19,6.87-3.51,0-6.43-1.14-8.01-3.46ZM96.29,62.41l2.18-3.02h.05c1.83,3.12,5.44,6.08,7.42,6.68l-.1.1c-2.82-.2-7.07-2.13-9.54-3.71v-.05Z" style="fill: #876046;"/>
          <path d="M133.19,96.92c.25,0,2.32-.35,2.32-3.76v-31.95c0-3.41-2.08-3.76-2.32-3.76v-.05h6.73v35.75c0,3.41,2.08,3.76,2.32,3.76v.05h-9.05v-.05Z" style="fill: #876046;"/>
          <path d="M147.68,76.9l-.2-.15c.2-3.86,4.25-8.41,11.33-8.41,3.02,0,6.23.64,8.31,2.47,1.58,1.43,2.42,3.51,2.42,6.28v16.07c0,3.41,2.13,3.76,2.32,3.76v.05h-6.68v-6.58c-1.73,3.61-5.49,6.87-10.93,6.87-5.79,0-8.11-2.97-8.11-6.43,0-6.13,6.68-10.73,19.04-10.88v-2.23c0-2.23-.5-3.96-1.38-5.19-1.29-1.93-3.61-2.87-6.23-2.87-5.19,0-9.35,3.71-9.89,7.22ZM155.84,95.69c4.65,0,8.31-3.66,9.35-6.68v-8.36c-11.33.2-14.54,5.74-14.54,9.59,0,2.82,1.63,5.44,5.19,5.44ZM154.21,62.55l2.18-3.02h.05c1.83,3.12,5.44,6.08,7.42,6.68l-.1.1c-2.82-.2-7.07-2.13-9.54-3.71v-.05Z" style="fill: #876046;"/>
          <path d="M175.62,68.69v-.05h6.73v6.38c1.24-3.41,4.55-6.87,10.14-6.87,3.56,0,6.43,1.14,8.01,3.46.99,1.38,1.53,3.31,1.53,5.49v16.07c0,3.41,2.08,3.76,2.32,3.76v.05h-9.05v-.05c.25,0,2.32-.35,2.32-3.76v-14.84c0-2.08-.3-3.91-.94-5.29-1.04-2.23-2.87-3.41-5.54-3.41-4.5,0-8.36,3.81-8.8,8.11v15.43c0,3.41,2.08,3.76,2.32,3.76v.05h-9.05v-.05c.25,0,2.32-.35,2.32-3.76v-20.72c0-3.41-2.08-3.76-2.32-3.76Z" style="fill: #876046;"/>
          <path d="M227.9,104.05c1.48-2.08,1.98-4.95,1.98-7.86v-3.81c-1.19,2.42-4.06,5.09-8.85,5.09-8.85,0-12.66-6.92-12.66-14.29,0-8.75,5.44-15.03,13.65-15.03,4.55,0,7.17,2.57,7.86,3.86v-3.36h6.68v.05c-.2,0-2.32.35-2.32,3.76v22.4c0,2.47-.1,5.59-1.83,8.16-1.78,2.57-5.24,4.65-10.78,4.65-5.19,0-8.06-1.53-9.84-1.53v-8.11h.05c.4,2.62,1.14,5.09,2.42,6.43,2.03,2.18,4.8,2.42,7.07,2.42,3.02,0,5.29-1.09,6.58-2.82ZM222.21,96.13c3.96,0,7.12-2.62,7.67-6.03v-16.47c-.89-2.23-3.51-4.06-6.83-4.06-5.19,0-10.24,3.86-10.24,13.11,0,8.26,3.66,13.45,9.4,13.45Z" style="fill: #876046;"/>
          <path d="M253.57,68.69v-.05h6.73v6.38c1.24-3.41,4.55-6.87,10.14-6.87,3.56,0,6.43,1.14,8.01,3.46.99,1.38,1.53,3.31,1.53,5.49v16.07c0,3.41,2.08,3.76,2.32,3.76v.05h-9.05v-.05c.25,0,2.32-.35,2.32-3.76v-14.84c0-2.08-.3-3.91-.94-5.29-1.04-2.23-2.87-3.41-5.54-3.41-4.5,0-8.36,3.81-8.8,8.11v15.43c0,3.41,2.08,3.76,2.32,3.76v.05h-9.05v-.05c.25,0,2.32-.35,2.32-3.76v-20.72c0-3.41-2.08-3.76-2.32-3.76Z" style="fill: #876046;"/>
          <path d="M305.84,104.05c1.48-2.08,1.98-4.95,1.98-7.86v-3.81c-1.19,2.42-4.06,5.09-8.85,5.09-8.85,0-12.66-6.92-12.66-14.29,0-8.75,5.44-15.03,13.65-15.03,4.55,0,7.17,2.57,7.86,3.86v-3.36h6.68v.05c-.2,0-2.32.35-2.32,3.76v22.4c0,2.47-.1,5.59-1.83,8.16-1.78,2.57-5.24,4.65-10.78,4.65-5.19,0-8.06-1.53-9.84-1.53v-8.11h.05c.4,2.62,1.14,5.09,2.42,6.43,2.03,2.18,4.8,2.42,7.07,2.42,3.02,0,5.29-1.09,6.58-2.82ZM300.16,96.13c3.96,0,7.12-2.62,7.67-6.03v-16.47c-.89-2.23-3.51-4.06-6.83-4.06-5.19,0-10.24,3.86-10.24,13.11,0,8.26,3.66,13.45,9.4,13.45Z" style="fill: #876046;"/>
          <path d="M318.9,57.46v-.05h6.73v17.61c1.24-3.41,4.55-6.87,10.14-6.87,3.56,0,6.43,1.14,8.01,3.46.99,1.38,1.53,3.31,1.53,5.49v16.07c0,3.41,2.08,3.76,2.32,3.76v.05h-9.05v-.05c.25,0,2.32-.35,2.32-3.76v-14.84c0-2.08-.3-3.91-.94-5.29-1.04-2.23-2.87-3.41-5.54-3.41-4.5,0-8.36,3.81-8.8,8.11v15.43c0,3.41,2.08,3.76,2.32,3.76v.05h-9.05v-.05c.25,0,2.32-.35,2.32-3.76v-31.95c0-3.41-2.08-3.76-2.32-3.76Z" style="fill: #876046;"/>
          <path d="M351.64,83.62c0-8.31,4.85-15.48,14.44-15.48,6.38,0,9.59,3.76,9.59,7.52,0,6.13-7.86,7.47-19.53,7.47.15,8.01,4.2,13.01,10.19,13.01,5.39,0,7.96-3.12,8.9-4.99l.05.05c-.64,2.18-3.36,6.28-10.29,6.28-9.84,0-13.35-7.37-13.35-13.85ZM371.87,74.87c0-3.46-2.32-5.93-5.79-5.93-5.69,0-9.64,5.39-9.99,13.5,11.47,0,15.78-3.26,15.78-7.57ZM358.52,67.3c2.57-.59,5.54-1.93,7.07-3.02h.1c1.58,1.09,4.55,2.42,7.12,3.02l.1-.05c-2.37-1.19-5.88-4.2-7.22-6.63h-.1c-1.29,2.42-4.8,5.44-7.17,6.63l.1.05ZM368.01,60.63l2.18-3.02h.05c1.83,3.12,5.44,6.08,7.42,6.68l-.1.1c-2.82-.2-7.07-2.13-9.54-3.71v-.05Z" style="fill: #876046;"/>
        </g>
        <g>
          <path d="M19.19,127.73v-.05h6.68v3.86h1.98v.74h-1.98v31.16c0,3.41,2.13,3.76,2.32,3.76v.05h-6.68v-4.6c-1.19,2.42-4.06,5.09-8.85,5.09-8.85,0-12.66-6.92-12.66-14.29,0-8.75,5.44-15.03,13.65-15.03,4.55,0,7.17,2.57,7.86,3.86v-9.99h-5.64v-.74h5.64v-.05c0-3.41-2.13-3.76-2.33-3.76ZM13.85,166.4c3.96,0,7.12-2.62,7.67-6.03v-16.47c-.89-2.23-3.51-4.06-6.83-4.06-5.19,0-10.24,3.86-10.24,13.11,0,8.26,3.66,13.45,9.4,13.45Z" style="fill: #876046;"/>
          <path d="M32.99,153.89c0-8.31,4.85-15.48,14.44-15.48,6.38,0,9.59,3.76,9.59,7.52,0,6.13-7.86,7.47-19.53,7.47.15,8.01,4.2,13.01,10.19,13.01,5.39,0,7.96-3.12,8.9-4.99l.05.05c-.64,2.18-3.36,6.28-10.29,6.28-9.84,0-13.35-7.37-13.35-13.85ZM53.21,145.13c0-3.46-2.32-5.93-5.79-5.93-5.69,0-9.64,5.39-9.99,13.5,11.47,0,15.78-3.26,15.78-7.57ZM39.86,137.57c2.57-.59,5.54-1.93,7.07-3.02h.1c1.58,1.09,4.55,2.42,7.12,3.02l.1-.05c-2.37-1.19-5.88-4.2-7.22-6.63h-.1c-1.29,2.42-4.8,5.44-7.17,6.63l.1.05ZM57.81,126.29h.05l2.18,3.02v.05c-2.47,1.58-6.73,3.51-9.59,3.71l-.05-.1c1.98-.59,5.59-3.56,7.42-6.68Z" style="fill: #876046;"/>
          <path d="M61.47,138.95v-.05h6.73v6.38c1.24-3.41,4.55-6.87,10.14-6.87,3.56,0,6.43,1.14,8.01,3.46.99,1.38,1.53,3.31,1.53,5.49v16.07c0,3.41,2.08,3.76,2.32,3.76v.05h-9.05v-.05c.25,0,2.32-.35,2.32-3.76v-14.84c0-2.08-.3-3.91-.94-5.29-1.04-2.23-2.87-3.41-5.54-3.41-4.5,0-8.36,3.81-8.8,8.11v15.43c0,3.41,2.08,3.76,2.32,3.76v.05h-9.05v-.05c.25,0,2.32-.35,2.32-3.76v-20.72c0-3.41-2.08-3.76-2.32-3.76Z" style="fill: #876046;"/>
        </g>
        <g>
          <path d="M101.65,167.56c-3.08,3.38-6.24,5.82-9.47,7.32-3.23,1.5-6.9,2.25-11,2.25-2.24,0-4.9-.38-7.98-1.14-3.08-.68-4.79-1.23-5.13-1.65-.25-.3.19-1.06,1.33-2.28,1.14-1.18,2.09-1.88,2.85-2.09.17-.04.46-.02.86.06.4.08,1.24.36,2.5.82,1.52.51,2.91.93,4.15,1.27,1.25.34,2.4.62,3.45.86,1.06.23,2.05.39,2.98.48.93.08,1.84.13,2.73.13,1.27,0,2.48-.18,3.64-.54,1.16-.36,2.33-.94,3.52-1.74,1.18-.8,2.41-1.85,3.67-3.14s2.62-2.84,4.06-4.66c1.27-1.61,2.64-3.42,4.12-5.45.76-1.1,1.7-2.46,2.82-4.09,1.12-1.63,2.42-3.54,3.9-5.73l16.67-24.72c-.63-3.42-1.44-5.9-2.41-7.45-.97-1.54-2.26-2.31-3.87-2.31-.72,0-1.58.17-2.6.51-.97.34-3.15,1.69-6.53,4.06-3.38,2.41-5.89,4.29-7.54,5.64l-.38-.44c1.27-1.06,2.64-2.15,4.12-3.3,1.48-1.14,3.06-2.35,4.75-3.61,1.69-1.27,3.12-2.3,4.28-3.11,1.16-.8,2.06-1.37,2.69-1.71,1.73-.93,3.53-1.39,5.39-1.39,2.2,0,3.82,1.04,4.88,3.11,1.1,2.11,2.05,6,2.85,11.66.46,3.34.88,6.38,1.24,9.13.36,2.75.69,5.22.98,7.42.29,2.2.63,4.91,1.01,8.14.38,3.23.8,7,1.27,11.31,1.48-2.66,3.09-5.5,4.85-8.52,1.75-3.02,3.64-6.24,5.67-9.66,2.03-3.42,3.89-6.53,5.58-9.32,1.69-2.79,3.23-5.32,4.63-7.6,1.35-2.15,2.76-4.54,4.21-7.16,1.46-2.62,3.03-5.6,4.72-8.94.29-.42.82-.38,1.58.13.76.51.95.99.57,1.46-.46.51-1.09,1.29-1.87,2.34-.78,1.06-1.72,2.39-2.82,3.99-1.1,1.61-2.11,3.12-3.04,4.53-.93,1.42-1.77,2.74-2.54,3.96-3.17,5.24-5.96,9.83-8.37,13.78-2.41,3.95-4.42,7.32-6.02,10.11s-3.05,5.28-4.34,7.48c-1.29,2.2-2.42,4.16-3.39,5.89-.08.09-.23.31-.44.67-.21.36-.49.83-.82,1.43-.72,1.23-1.16,1.92-1.33,2.09-.17.17-.38.25-.63.25-.13,0-.23-.02-.32-.06-.08-.04-.16-.17-.22-.38-.06-.21-.12-.53-.16-.95-.04-.42-.11-1.01-.19-1.77-.34-2.96-.66-5.68-.95-8.18-.3-2.49-.57-4.79-.82-6.91-.25-2.15-.64-5.15-1.17-9-.53-3.84-1.19-8.6-2-14.26,0-.13-.01-.26-.03-.41-.02-.15-.05-.35-.09-.6-.04-.34-.07-.58-.1-.73-.02-.15-.05-.29-.09-.41l-16.16,24.08c-5.37,7.98-8.68,12.82-9.95,14.51-.68.85-1.32,1.65-1.93,2.41-.61.76-1.22,1.48-1.81,2.15Z" style="fill: #876046;"/>
          <path d="M175.29,164.89c-1.77.97-3.29,1.67-4.56,2.09s-2.47.63-3.61.63c-.63,0-1.29-.14-1.96-.41s-1.31-.63-1.9-1.08c-.59-.44-1.11-.97-1.55-1.58-.44-.61-.77-1.26-.98-1.93-.63-2.15-.68-4.36-.13-6.62.55-2.26,1.65-4.85,3.29-7.76.59-1.01,1.31-2.04,2.16-3.07.84-1.03,1.82-2.08,2.92-3.14,2.28-2.15,4.5-3.84,6.65-5.07,1.35-.72,2.7-1.28,4.06-1.68,1.35-.4,2.62-.6,3.8-.6,1.82,0,3.22.32,4.21.95.99.63,1.49,1.5,1.49,2.6,0,1.56-1.04,3.35-3.11,5.35-2.07,2.01-5.39,4.47-9.95,7.38-2.75,1.65-4.84,2.92-6.27,3.8-.72.47-1.44.9-2.15,1.3-.72.4-1.44.81-2.15,1.24-.04.47-.07.93-.1,1.39-.02.47-.01.97.03,1.52.8,2.92,2.58,4.37,5.32,4.37.84,0,1.82-.14,2.92-.41,1.1-.27,2.11-.62,3.04-1.05,1.01-.46,2.32-1.35,3.93-2.66.84-.68,1.58-1.32,2.22-1.93.63-.61,1.18-1.21,1.65-1.81l.57.32c-1.18,1.44-2.64,2.85-4.37,4.25s-3.55,2.6-5.45,3.61ZM176.81,136.88c-1.14.76-2.42,2.01-3.83,3.74-1.42,1.73-2.67,3.63-3.77,5.7-.97,1.77-1.76,3.53-2.38,5.26-.61,1.73-1.03,3.42-1.24,5.07,2.03-1.18,3.88-2.29,5.55-3.33,1.67-1.04,3.2-2,4.59-2.88,2.66-1.73,4.63-3.17,5.89-4.31,1.27-1.14,2.09-2.2,2.47-3.17.17-.38.25-.84.25-1.39,0-.63-.16-1.26-.48-1.87-.32-.61-.75-1.14-1.3-1.58-.55-.44-1.18-.8-1.9-1.08-.72-.27-1.46-.41-2.22-.41-.63,0-1.18.08-1.65.25ZM192.14,130.04c0,.76-.47,1.16-1.39,1.2-1.65.3-2.51-.13-2.6-1.27-.3-2.11-.61-3.75-.95-4.91-.34-1.16-.76-2.1-1.27-2.82-.13-.13-.25-.19-.38-.19-1.35,1.06-2.56,2.15-3.61,3.26-1.06,1.12-2.15,2.61-3.29,4.47-.3.42-.71.77-1.24,1.05-.53.28-1.13.43-1.81.48-.97.25-1.5.02-1.58-.7-.08-.89.97-2.13,3.17-3.74,1.1-.84,2.33-1.69,3.71-2.53,1.37-.84,2.88-1.69,4.53-2.54.29-.17.59-.13.89.13.76.76,1.48,1.52,2.15,2.28.68.76,1.28,1.51,1.81,2.25.53.74.95,1.42,1.27,2.03.32.61.52,1.13.6,1.55ZM200.95,115.02c.72-.55,1.37-.82,1.96-.82.34,0,.67.19.98.57.32.38.43.7.35.95-.04.25-.15.55-.32.89-.17.34-.36.57-.57.7-.13.09-.31.21-.54.38-.23.17-.73.49-1.49.95-2.16,1.35-3.9,2.49-5.23,3.42-1.33.93-2.55,1.84-3.64,2.73-.04.04-.11.06-.19.06-.21,0-.32-.13-.32-.38,0-.04.04-.1.13-.19,1.18-.97,2.41-2.09,3.68-3.36s2.72-2.92,4.37-4.94c.29-.38.5-.62.6-.73.11-.1.18-.18.22-.22Z" style="fill: #876046;"/>
          <path d="M176.24,184.6c-1.69.13-2.82.2-3.39.22-.57.02-.94.03-1.11.03-.29,0-.43-.07-.41-.22.02-.15.16-.24.41-.29,2.66-.25,4.52-.59,5.58-1.01,1.18-.38,2.24-1.04,3.17-1.96,1.06-.97,2.32-2.6,3.8-4.88.72-1.1,1.64-2.6,2.76-4.5,1.12-1.9,2.46-4.23,4.02-6.97,2.66-4.65,4.8-8.47,6.43-11.47,1.63-3,2.76-5.2,3.39-6.59,1.27-2.75,1.86-4.71,1.77-5.89-.04-.55-.28-1.08-.7-1.58-.42-.51-.95-.84-1.58-1.01-.93.21-2.09.81-3.49,1.81-1.39.99-2.68,2.15-3.87,3.45l-.44-.44c3.8-3.68,7.2-6.38,10.2-8.11.51-.21.87-.32,1.08-.32,1.01,0,1.86.66,2.54,1.96.34.68.61,1.36.82,2.06.21.7.34,1.41.38,2.12.08,1.14-.25,2.6-1.01,4.37-.8,1.86-2.77,5.32-5.89,10.39,2.2-2.53,4.35-4.93,6.46-7.19,2.11-2.26,4.12-4.3,6.02-6.12,2.66-2.53,4.92-4.48,6.78-5.83,1.86-1.35,3.25-2.05,4.18-2.09.72.13,1.44.66,2.16,1.58.72.93,1.22,1.96,1.52,3.11.21.8.29,1.71.25,2.73-.04,1.01-.18,2.06-.41,3.14-.23,1.08-.56,2.17-.98,3.26-.42,1.1-.91,2.15-1.46,3.17-1.35,2.45-3.16,4.77-5.42,6.97-2.26,2.2-4.79,4.12-7.57,5.77-1.1.63-2.07,1.16-2.92,1.58-.85.42-1.63.76-2.34,1.01-.72.25-1.39.43-2.03.54-.63.1-1.27.16-1.9.16-2.07,0-4.08-1.6-6.02-4.82-.47.72-1.03,1.64-1.68,2.76-.66,1.12-1.41,2.42-2.25,3.9-.85,1.48-1.68,2.95-2.5,4.4-.82,1.46-1.62,2.86-2.38,4.21-.55.93-1.04,1.8-1.49,2.6-.44.8-.86,1.52-1.24,2.15.25.29,1.27.57,3.04.82,1.61.3,3.06.44,4.37.44.34,0,.5.09.48.29-.02.19-.26.29-.73.29-.21,0-.57-.01-1.08-.03-.51-.02-1.42-.05-2.73-.1-1.69-.08-2.88-.14-3.58-.16-.7-.02-1.24-.03-1.62-.03s-1.08.02-2.09.06c-1.01.04-2.79.13-5.32.25ZM220.72,137.71c-.42.04-1.23.51-2.41,1.39-1.18.89-2.73,2.18-4.63,3.87-2.79,2.54-5.49,5.24-8.11,8.11-1.31,1.44-2.48,2.78-3.52,4.02-1.04,1.25-1.93,2.42-2.69,3.52,1.48,2.41,2.81,4.07,3.99,4.97,1.18.91,2.54,1.36,4.06,1.36.89,0,1.66-.08,2.31-.25.65-.17,1.43-.48,2.31-.95,2.28-1.9,3.97-3.59,5.07-5.07,1.1-1.48,2.11-3.23,3.04-5.26,1.14-2.53,1.93-4.96,2.38-7.29.44-2.32.5-4.2.16-5.64-.17-.76-.39-1.34-.67-1.74-.28-.4-.71-.75-1.3-1.05Z" style="fill: #876046;"/>
          <path d="M272.18,166.35c-2.7,4.31-5.57,7.65-8.59,10.01-3.02,2.37-5.95,3.55-8.78,3.55-1.56,0-3.01-.34-4.34-1.01-1.33-.68-2.42-1.65-3.26-2.92-.89-1.27-1.43-2.65-1.62-4.15-.19-1.5,0-2.93.54-4.28.97-2.37,3.15-4.52,6.53-6.46,3.46-1.99,6.84-2.98,10.14-2.98,1.1,0,2.42.27,3.96.82,1.54.55,3.41,1.44,5.61,2.66.25-.63.52-1.33.79-2.09.27-.76.56-1.56.86-2.41.29-.89.68-2.04,1.14-3.45.46-1.42,1.01-3.09,1.65-5.04.97-2.96,1.82-5.5,2.54-7.64.72-2.13,1.31-3.88,1.77-5.23.46-1.35.93-2.6,1.39-3.74.46-1.14.93-2.18,1.39-3.11,2.28-5.11,5.7-9.03,10.27-11.76,4.56-2.73,10.01-4.09,16.35-4.09,1.82,0,4.27.3,7.35.89,3.08.59,5.09,1.1,6.02,1.52.34.09.51.32.51.7,0,.63-.47,1.35-1.39,2.15-.97.85-1.69,1.27-2.15,1.27-.21,0-.47-.02-.76-.06-.3-.04-.57-.08-.82-.13-.46-.13-1.02-.29-1.68-.51-.66-.21-1.7-.59-3.14-1.14-1.48-.59-2.79-1.08-3.93-1.46-1.14-.38-2.11-.68-2.92-.89-1.61-.38-3-.57-4.18-.57-2.24,0-4.02.37-5.36,1.11-1.33.74-2.61,2-3.83,3.77-.76,1.06-1.55,2.38-2.38,3.96-.82,1.58-1.74,3.52-2.76,5.8-.3.59-.59,1.24-.89,1.93-.3.7-.61,1.43-.95,2.19-.34.72-.74,1.66-1.2,2.82-.47,1.16-1.01,2.53-1.65,4.09-1.23,2.96-2.31,5.51-3.26,7.67-.95,2.15-1.76,3.95-2.44,5.39-1.27,2.87-2.47,5.41-3.61,7.6l-.82,1.58c.59.34,1.37.81,2.34,1.43.97.61,2.15,1.36,3.55,2.25,1.44.89,2.7,1.67,3.8,2.34,1.1.68,2.05,1.25,2.85,1.71,3.04,1.69,5.65,2.94,7.83,3.74,2.18.8,4.11,1.2,5.8,1.2,2.79,0,5.41-.97,7.86-2.92.76-.55,1.48-1.16,2.15-1.84.68-.68,1.94-2.07,3.8-4.18l.51.38c-.85.97-1.53,1.76-2.06,2.38-.53.61-.9,1.05-1.11,1.3-.21.25-.42.49-.63.7-.21.21-.4.4-.57.57-3.08,3.08-5.68,5.13-7.79,6.15-2.11,1.01-4.37,1.52-6.78,1.52-1.44,0-3.14-.41-5.1-1.24-1.96-.82-4.41-2.19-7.32-4.09-.72-.47-1.59-1.06-2.63-1.77-1.04-.72-2.21-1.54-3.52-2.47-1.31-.93-2.38-1.68-3.2-2.25-.82-.57-1.45-1-1.87-1.3ZM258.87,159.89c-4.35,0-7.27,1.94-8.75,5.83-.42,1.1-.45,2.32-.09,3.68.36,1.35,1.05,2.62,2.06,3.8.93,1.1,2.01,1.95,3.23,2.57,1.23.61,2.49.92,3.8.92,2.41,0,4.46-.85,6.15-2.53,1.77-1.77,3.59-4.71,5.45-8.81-2.79-1.9-5.13-3.28-7.04-4.15-1.9-.87-3.51-1.3-4.82-1.3Z" style="fill: #876046;"/>
          <path d="M324.08,167.05c-.21.17-.59.25-1.14.25-.25,0-.53-.02-.82-.06-.3-.04-.49-.1-.57-.19-1.48-1.06-2.24-3.15-2.28-6.27-.08-3.13.55-6.34,1.9-9.63,1.18-2.92,3.11-5.7,5.77-8.37,2.58-2.58,5.49-4.63,8.75-6.15,2.58-1.23,4.79-1.84,6.65-1.84s3.34.34,4.44,1.01c1.18.63,2.58,1.84,4.18,3.61.55-.46,1.28-1.13,2.19-2,.91-.87,1.66-1.64,2.25-2.31.38-.38.57-.34.57.13-1.61,2.03-3.2,4.24-4.78,6.62-1.58,2.39-3.18,5-4.79,7.83-3.21,5.62-4.75,9.51-4.63,11.66.04.55.29,1.09.73,1.62.44.53.96.88,1.55,1.05.51-.25,1.1-.57,1.77-.95.68-.38,1.35-.82,2.03-1.33.67-.51,1.35-1.03,2.03-1.58.68-.55,1.27-1.12,1.77-1.71l.38.44c-2.07,2.03-3.9,3.69-5.48,4.97-1.58,1.29-3.09,2.36-4.53,3.2-.13.04-.32.08-.57.13-.25.04-.55.06-.89.06-.47,0-.92-.03-1.36-.1-.44-.06-.69-.12-.73-.16-.55-.63-1.01-1.44-1.39-2.41-.38-.97-.59-1.86-.63-2.66-.04-.84.12-1.82.47-2.92.36-1.1.96-2.35,1.81-3.74.51-.8,1.2-1.88,2.09-3.23.46-.68.84-1.25,1.14-1.71.3-.46.53-.8.7-1.01-1.77,1.9-3.76,3.94-5.96,6.12-2.2,2.18-4.39,4.28-6.59,6.31-1.56,1.44-2.79,2.54-3.68,3.3-.89.76-1.67,1.44-2.34,2.03ZM325.86,150.32c-.97,3.04-1.49,5.81-1.55,8.3-.06,2.49.35,4.25,1.24,5.26.76-.17,2.07-1.03,3.93-2.6,1.23-1.01,2.57-2.22,4.02-3.61,1.46-1.39,3.07-2.98,4.85-4.75,3.46-3.51,6.53-6.89,9.19-10.14-1.86-2.37-3.45-4.03-4.78-5.01-1.33-.97-2.69-1.46-4.09-1.46-.89,0-1.8.23-2.72.7-2.07.97-4.01,2.68-5.83,5.13-.93,1.23-1.75,2.52-2.47,3.9-.72,1.37-1.31,2.8-1.77,4.28ZM346.58,131.43c-.08,0-.17-.04-.25-.13-.72-.89-1.54-1.78-2.47-2.69-.93-.91-2.15-1.97-3.68-3.2-.51-.38-.83-.64-.98-.79-.15-.15-.26-.26-.35-.35-.21-.17-.41-.51-.6-1.01-.19-.51-.26-.91-.22-1.2.08-.25.29-.51.63-.76.34-.25.65-.38.95-.38.55,0,1.18.49,1.9,1.46.04.09.12.21.22.38.11.17.29.53.54,1.08.89,1.77,1.67,3.2,2.34,4.28.68,1.08,1.37,2.04,2.09,2.88.04.04.06.11.06.19,0,.17-.06.25-.19.25Z" style="fill: #876046;"/>
          <path d="M366.16,157.35c-.3.47-.61.95-.95,1.46-.34.51-.68,1.06-1.01,1.65-.34.59-.85,1.43-1.52,2.5-.68,1.08-1.5,2.42-2.47,4.02-.59.04-1,.07-1.24.1-.23.02-.45.03-.67.03-1.94,0-2.58-.91-1.9-2.72,3.21-4.31,6-8.79,8.37-13.44,2.37-4.6,3.49-7.9,3.36-9.89-.04-.63-.24-1.19-.6-1.68-.36-.48-.83-.81-1.43-.98-.97.25-2.14.86-3.52,1.81-1.37.95-2.65,2.06-3.83,3.33l-.44-.44c1.65-1.6,3.37-3.11,5.17-4.5,1.79-1.39,3.47-2.54,5.04-3.42.51-.21.87-.32,1.08-.32.89,0,1.67.66,2.34,1.96.34.68.61,1.36.82,2.06.21.7.34,1.41.38,2.12.08,1.18-.25,2.73-1.01,4.63-.72,1.82-2.18,4.63-4.37,8.43,3.38-4.27,7.42-8.39,12.1-12.36,4.6-3.93,8.13-6.25,10.58-6.97,2.15.47,3,2.04,2.54,4.72-.47,2.68-2.24,6.62-5.32,11.82-.17.25-.36.58-.57.98-.21.4-.49.9-.82,1.49-.34.55-.62,1.02-.86,1.43-.23.4-.43.75-.6,1.05-.72,1.31-1.23,2.38-1.52,3.2-.3.82-.42,1.53-.38,2.12.08,1.35.7,2.2,1.84,2.54.51-.17,1.09-.43,1.74-.79.65-.36,1.32-.78,2-1.27.68-.49,1.35-1.01,2.03-1.58.67-.57,1.31-1.15,1.9-1.74l.38.44c-1.9,1.9-3.64,3.48-5.23,4.72-1.58,1.25-3.12,2.31-4.59,3.2-.17.08-.33.14-.48.16-.15.02-.41.03-.79.03-.34,0-.67-.02-.98-.06-.32-.04-.52-.1-.6-.19-.68-.51-1.24-1.26-1.68-2.25-.44-.99-.69-1.91-.73-2.76-.04-.59.13-1.37.51-2.35.38-.97.99-2.2,1.84-3.68.21-.34.45-.76.73-1.27.27-.51.6-1.08.98-1.71.42-.63.76-1.17,1.01-1.62.25-.44.46-.79.63-1.05,1.06-1.86,1.93-3.46,2.63-4.82.7-1.35,1.19-2.51,1.49-3.49.29-.97.4-1.77.32-2.41-.08-.63-.36-1.18-.82-1.65-2.28.68-5.56,2.96-9.82,6.84-4.27,3.8-7.94,7.98-11.03,12.55Z" style="fill: #876046;"/>
          <path d="M415.78,183.65c-1.52,2.58-4.33,4.69-8.43,6.34-4.01,1.65-8.26,2.43-12.74,2.34-3.17-.04-5.89-.51-8.18-1.39s-3.76-2.13-4.44-3.74c-.55-1.31-.49-2.6.19-3.87.51-1.14,1.49-2.37,2.95-3.68,1.46-1.31,3.6-2.92,6.43-4.82.08-.04.5-.31,1.24-.79.74-.49,1.85-1.21,3.33-2.19,1.44-.93,2.72-1.79,3.87-2.57,1.14-.78,2.13-1.47,2.98-2.06h-.38c-.17,0-.33-.02-.48-.06-.15-.04-.29-.08-.41-.13-1.52-1.1-2.3-3.19-2.34-6.27-.04-3.04.61-6.23,1.96-9.57.63-1.52,1.46-3,2.47-4.44,1.01-1.44,2.18-2.8,3.49-4.09,1.31-1.29,2.74-2.46,4.28-3.52,1.54-1.06,3.14-1.96,4.78-2.73,1.18-.55,2.33-.97,3.45-1.27,1.12-.29,2.12-.44,3.01-.44,1.48,0,2.68.3,3.61.89.46.3,1.07.81,1.81,1.55.74.74,1.59,1.7,2.57,2.88.97-.8,1.94-1.64,2.92-2.5.97-.87,1.82-1.64,2.54-2.31l.44.25c-1.06,1.27-2.06,2.54-3.01,3.8-.95,1.27-1.81,2.49-2.57,3.68-2.7,4.31-4.96,8.44-6.78,12.39-1.82,3.95-3.25,7.91-4.31,11.88-.3,1.1-.58,2.23-.86,3.39-.28,1.16-.58,2.76-.92,4.78-.25,1.31-.49,2.42-.7,3.33-.21.91-.4,1.64-.57,2.19-.17.55-.36,1.05-.57,1.49-.21.44-.42.86-.63,1.24ZM387.46,186.7c.68,1.6,1.9,2.84,3.67,3.71,1.77.87,3.99,1.3,6.65,1.3,2.32,0,4.58-.62,6.78-1.87,2.2-1.25,4.1-3.01,5.7-5.29.55-.89,1.06-1.96,1.52-3.23.42-1.27.99-3.49,1.71-6.65.25-1.27.49-2.39.7-3.36.21-.97.42-1.85.63-2.63.21-.78.41-1.51.6-2.19.19-.68.39-1.33.6-1.96.97-2.92,2.05-5.64,3.23-8.17,1.18-2.54,2.56-5.07,4.12-7.6-1.52,1.56-3.12,3.18-4.78,4.85-1.67,1.67-3.45,3.39-5.36,5.16-1.9,1.77-3.59,3.34-5.07,4.69-1.48,1.35-2.79,2.51-3.93,3.49-4.39,3.17-7.18,5.2-8.37,6.08-.59.46-1.14.91-1.65,1.33-.51.42-.99.84-1.46,1.27-1.31,1.14-2.39,2.21-3.23,3.2-.84.99-1.48,1.95-1.9,2.88-.8,1.82-.87,3.49-.19,5.01ZM406.02,150.38c-1.01,3.17-1.53,5.96-1.55,8.37-.02,2.41.43,4.16,1.36,5.26,2.45-1.65,6-4.69,10.65-9.13,4.65-4.39,8.32-8.37,11.03-11.91-2.37-2.92-4.08-4.77-5.13-5.58-.97-.76-2.01-1.14-3.11-1.14-.76,0-1.67.23-2.72.7-2.16.93-4.23,2.66-6.21,5.2-.97,1.23-1.82,2.54-2.54,3.93s-1.31,2.83-1.77,4.31Z" style="fill: #876046;"/>
        </g>
      </g>
      <g>
        <path d="M185.14,28.59c-.81.88-.28,2.31.91,2.45,8.04.91,18.5,1.3,30.52-.35,12.57-1.73,22.94-5.14,30.64-8.36,1.12-.47,1.2-2.02.15-2.63L213.32.29c-.89-.51-2-.33-2.69.42-8.5,9.29-16.99,18.58-25.49,27.88Z" style="fill: #876046;"/>
        <path d="M191.46,35.15c6.55.89,15.68,1.43,26.38-.11,10.59-1.52,19.12-4.57,25.12-7.23-4.83,2.9-13.3,7.15-24.71,8.83-11.72,1.73-21.3-.04-26.79-1.49Z" style="fill: #876046;"/>
      </g>
    </g>
  </g>
</svg>