<?xml version="1.0" encoding="UTF-8"?>
<svg id="Layer_2" data-name="Layer 2" xmlns="http://www.w3.org/2000/svg" viewBox="0 0 359.34 153.89">
  <g id="Layer_1-2" data-name="Layer 1">
    <g>
      <g>
        <g>
          <path d="M133.41,76.22h.04v6h-18.22v-.04c.19,0,2.1-.31,2.1-3.43v-23.44c0-3.12-1.91-3.43-2.1-3.43v-.04h7.71v.04c-.16,0-2.1.31-2.1,3.43v26.36h9.07c3.19,0,3.5-4.95,3.5-5.45Z" style="fill: #876046;"/>
          <path d="M135.71,59.95v-.04h5.3v19.31c0,2.69,1.64,2.96,1.83,2.96v.04h-7.13v-.04c.19,0,1.83-.27,1.83-2.96v-16.32c0-2.69-1.64-2.96-1.83-2.96ZM139.1,53.48c1.09,0,2.03.93,2.03,2.06s-.94,2.06-2.03,2.06-2.06-.93-2.06-2.06.93-2.06,2.06-2.06ZM139.29,84.25c1.01,0,1.83.82,1.83,1.83s-.82,1.87-1.83,1.87-1.87-.82-1.87-1.87.82-1.83,1.87-1.83Z" style="fill: #876046;"/>
          <path d="M146.54,71.4c0-6.27,3.35-11.88,11.18-11.88,2.76,0,5.8,1.17,6.97,1.17v6.62h-.12c-.12-.74-.12-3.19-1.79-5.06-1.05-1.17-2.61-2.1-4.87-2.1-4.75,0-7.87,4.52-7.87,11.06s3.89,10.36,8.06,10.36,6.27-2.41,7.01-3.93l.04.04c-.51,1.71-2.65,4.95-8.1,4.95-7.09,0-10.51-5.22-10.51-11.21Z" style="fill: #876046;"/>
          <path d="M168.35,51.11v-.04h5.3v13.86c.97-2.69,3.58-5.41,7.98-5.41,2.8,0,5.06.9,6.31,2.73.78,1.09,1.21,2.61,1.21,4.32v12.66c0,2.69,1.64,2.96,1.83,2.96v.04h-7.13v-.04c.2,0,1.83-.27,1.83-2.96v-11.68c0-1.64-.23-3.08-.74-4.17-.82-1.75-2.26-2.69-4.36-2.69-3.54,0-6.58,3-6.93,6.39v12.15c0,2.69,1.64,2.96,1.83,2.96v.04h-7.13v-.04c.19,0,1.83-.27,1.83-2.96v-25.16c0-2.69-1.64-2.96-1.83-2.96Z" style="fill: #876046;"/>
          <path d="M204.76,82.22v-6.62h.04c.16,1.21.39,2.69,1.21,3.93.86,1.36,2.49,2.41,5.72,2.41,3.93,0,5.92-1.79,5.92-4.01s-1.67-3.97-4.21-5.02l-4.44-1.91c-2.65-1.17-4.59-2.73-4.59-5.49,0-3.74,3.7-5.92,8.25-5.92,2.84,0,4.59.66,6.81.66v5.96h-.08c-.2-1.05-.43-2.26-1.32-3.58-.93-1.29-2.49-2.45-5.41-2.45-2.02,0-5.41.86-5.41,3.78,0,1.91,1.52,3.19,3.7,4.09l4.32,1.83c3.04,1.29,5.33,3.31,5.33,6.46,0,3.43-2.73,6.19-8.53,6.19-3.19,0-4.24-.31-7.32-.31Z" style="fill: #876046;"/>
          <path d="M227.11,79.88c-.74-1.09-1.17-2.61-1.17-4.32v-12.66c0-2.69-1.67-2.96-1.83-2.96v-.04h5.26v14.68c0,1.64.23,3.08.74,4.17.86,1.79,2.3,2.73,4.36,2.73,3.54,0,6.62-3.04,6.97-6.43v-12.15c0-2.69-1.67-2.96-1.83-2.96v-.04h5.26v1.52c.66-.39.9-.9.97-1.28.04-.39,0-1.21-1.21-1.67v-.04l2.84-1.56c.54.58.78,1.44.62,2.26-.31,1.56-2.1,2.38-3.23,2.73v17.37c0,2.69,1.67,2.96,1.83,2.96v.04h-5.26v-5.02c-.97,2.69-3.58,5.41-8.02,5.41-2.76,0-5.06-.9-6.31-2.73ZM234.89,51.81c1.44,0,2.92.66,2.92,2.02,0,2.06-3.47,2.65-3.47,4.17-.08,0-.16-.12-.16-.27,0-1.71,1.36-2.18,1.36-3.97,0-.97-.47-1.32-1.05-1.32-1.17,0-1.75,1.67-1.87,3.12h-.08l-.27-2.8c.7-.58,1.64-.93,2.61-.93Z" style="fill: #876046;"/>
        </g>
        <g>
          <path d="M20.99,133.43c-2.13,3.39-4.38,6.02-6.76,7.88-2.38,1.86-4.68,2.79-6.91,2.79-1.23,0-2.37-.27-3.42-.8-1.05-.53-1.9-1.3-2.57-2.3-.7-1-1.12-2.09-1.27-3.27-.15-1.18,0-2.3.42-3.37.77-1.86,2.48-3.56,5.14-5.09,2.73-1.56,5.39-2.34,7.98-2.34.87,0,1.9.22,3.12.65,1.21.43,2.69,1.13,4.42,2.1.2-.5.41-1.05.62-1.65.22-.6.44-1.23.67-1.9.23-.7.53-1.6.9-2.72.37-1.11.8-2.44,1.3-3.97.76-2.33,1.43-4.33,2-6.01.57-1.68,1.03-3.05,1.4-4.12.37-1.06.73-2.05,1.1-2.94.37-.9.73-1.71,1.1-2.44,1.8-4.02,4.49-7.11,8.08-9.26,3.59-2.15,7.88-3.22,12.87-3.22,1.43,0,3.36.23,5.79.7,2.43.47,4.01.87,4.74,1.2.27.07.4.25.4.55,0,.5-.37,1.06-1.1,1.7-.77.67-1.33,1-1.7,1-.17,0-.37-.02-.6-.05-.23-.03-.45-.07-.65-.1-.37-.1-.81-.23-1.32-.4-.52-.17-1.34-.47-2.47-.9-1.17-.47-2.2-.85-3.09-1.15-.9-.3-1.66-.53-2.29-.7-1.26-.3-2.36-.45-3.29-.45-1.76,0-3.17.29-4.22.87-1.05.58-2.05,1.57-3.02,2.97-.6.83-1.22,1.87-1.87,3.12-.65,1.25-1.37,2.77-2.17,4.57-.23.47-.47.97-.7,1.52s-.48,1.12-.75,1.72c-.27.57-.58,1.31-.95,2.22-.37.92-.8,1.99-1.3,3.22-.97,2.33-1.82,4.34-2.57,6.04-.75,1.7-1.39,3.11-1.92,4.24-1,2.26-1.95,4.26-2.84,5.99l-.65,1.25c.47.27,1.08.64,1.85,1.12.76.48,1.7,1.07,2.79,1.77,1.13.7,2.13,1.31,2.99,1.85.86.53,1.61.98,2.25,1.35,2.4,1.33,4.45,2.31,6.16,2.94,1.71.63,3.23.95,4.57.95,2.2,0,4.26-.77,6.19-2.3.6-.43,1.16-.92,1.7-1.45.53-.53,1.53-1.63,2.99-3.29l.4.3c-.67.76-1.21,1.39-1.62,1.87-.42.48-.71.82-.87,1.02-.17.2-.33.38-.5.55-.17.17-.32.32-.45.45-2.43,2.43-4.47,4.04-6.14,4.84-1.66.8-3.44,1.2-5.34,1.2-1.13,0-2.47-.32-4.02-.97-1.55-.65-3.47-1.72-5.76-3.22-.57-.37-1.26-.83-2.07-1.4-.82-.57-1.74-1.21-2.77-1.95-1.03-.73-1.87-1.32-2.52-1.77-.65-.45-1.14-.79-1.47-1.02ZM10.51,128.34c-3.43,0-5.72,1.53-6.89,4.59-.33.87-.36,1.83-.08,2.89.28,1.06.82,2.06,1.62,2.99.73.86,1.58,1.54,2.54,2.02.96.48,1.96.72,2.99.72,1.9,0,3.51-.67,4.84-2,1.4-1.4,2.83-3.71,4.29-6.94-2.2-1.5-4.04-2.59-5.54-3.27-1.5-.68-2.76-1.02-3.79-1.02Z" style="fill: #876046;"/>
          <path d="M61.86,133.97c-.17.13-.47.2-.9.2-.2,0-.42-.02-.65-.05s-.38-.08-.45-.15c-1.17-.83-1.76-2.48-1.8-4.94-.07-2.46.43-4.99,1.5-7.58.93-2.3,2.45-4.49,4.54-6.59s4.32-3.64,6.89-4.84c2.03-.96,3.78-1.45,5.24-1.45s2.63.27,3.49.8c.93.5,2.03,1.45,3.29,2.84.43-.37,1.01-.89,1.72-1.57.71-.68,1.3-1.29,1.77-1.82.3-.3.45-.27.45.1-1.26,1.6-2.52,3.33-3.77,5.21-1.25,1.88-2.5,3.93-3.77,6.16-2.53,4.42-3.74,7.48-3.64,9.18.03.43.22.86.57,1.27.35.42.76.69,1.22.82.4-.2.87-.45,1.4-.75.53-.3,1.06-.65,1.6-1.05.53-.4,1.06-.81,1.6-1.25.53-.43,1-.88,1.4-1.35l.3.35c-1.63,1.6-3.07,2.9-4.32,3.92-1.25,1.02-2.44,1.85-3.57,2.52-.1.03-.25.07-.45.1-.2.03-.43.05-.7.05-.37,0-.72-.02-1.07-.07-.35-.05-.54-.09-.57-.12-.43-.5-.8-1.13-1.1-1.9-.3-.76-.47-1.46-.5-2.1-.03-.67.09-1.43.37-2.3.28-.86.76-1.85,1.42-2.94.4-.63.95-1.48,1.65-2.54.37-.53.67-.98.9-1.35.23-.37.42-.63.55-.8-1.4,1.5-2.96,3.1-4.69,4.81-1.73,1.71-3.46,3.37-5.19,4.96-1.23,1.13-2.2,2-2.89,2.59-.7.6-1.31,1.13-1.85,1.6ZM63.25,120.8c-.77,2.4-1.17,4.57-1.22,6.54-.05,1.96.27,3.34.97,4.14.6-.13,1.63-.81,3.09-2.05.96-.8,2.02-1.75,3.17-2.84s2.42-2.35,3.82-3.74c2.73-2.76,5.14-5.42,7.24-7.98-1.46-1.86-2.72-3.18-3.77-3.94-1.05-.76-2.12-1.15-3.22-1.15-.7,0-1.41.18-2.15.55-1.63.77-3.16,2.11-4.59,4.04-.73.97-1.38,1.99-1.95,3.07-.57,1.08-1.03,2.2-1.4,3.37ZM79.57,105.93c-.07,0-.13-.03-.2-.1-.57-.7-1.21-1.41-1.95-2.12s-1.7-1.55-2.89-2.52c-.4-.3-.66-.51-.77-.62-.12-.12-.21-.21-.27-.27-.17-.13-.32-.4-.47-.8-.15-.4-.21-.72-.17-.95.07-.2.23-.4.5-.6.27-.2.52-.3.75-.3.43,0,.93.38,1.5,1.15.03.07.09.17.17.3.08.13.22.42.42.85.7,1.4,1.31,2.52,1.85,3.37s1.08,1.61,1.65,2.27c.03.03.05.08.05.15,0,.13-.05.2-.15.2Z" style="fill: #876046;"/>
          <path d="M94.99,126.34c-.23.37-.48.75-.75,1.15-.27.4-.53.83-.8,1.3-.27.47-.67,1.12-1.2,1.97s-1.18,1.9-1.95,3.17c-.47.03-.79.06-.97.08-.18.02-.36.02-.52.02-1.53,0-2.03-.72-1.5-2.15,2.53-3.39,4.72-6.92,6.59-10.58,1.86-3.63,2.74-6.22,2.64-7.78-.03-.5-.19-.94-.47-1.32-.28-.38-.66-.64-1.12-.77-.77.2-1.69.67-2.77,1.42-1.08.75-2.09,1.62-3.02,2.62l-.35-.35c1.3-1.26,2.65-2.44,4.07-3.54s2.74-2,3.97-2.69c.4-.17.68-.25.85-.25.7,0,1.31.52,1.85,1.55.27.53.48,1.07.65,1.62.17.55.27,1.11.3,1.67.07.93-.2,2.15-.8,3.64-.57,1.43-1.71,3.64-3.44,6.64,2.66-3.36,5.84-6.6,9.53-9.73,3.63-3.09,6.4-4.92,8.33-5.49,1.7.37,2.36,1.61,2,3.72-.37,2.11-1.76,5.21-4.19,9.31-.13.2-.28.46-.45.77-.17.32-.38.71-.65,1.17-.27.43-.49.81-.67,1.12-.18.32-.34.59-.47.82-.57,1.03-.97,1.87-1.2,2.52-.23.65-.33,1.21-.3,1.67.07,1.06.55,1.73,1.45,2,.4-.13.86-.34,1.37-.62.52-.28,1.04-.62,1.57-1,.53-.38,1.06-.8,1.6-1.25.53-.45,1.03-.91,1.5-1.37l.3.35c-1.5,1.5-2.87,2.74-4.12,3.72-1.25.98-2.45,1.82-3.62,2.52-.13.07-.26.11-.37.12-.12.02-.32.02-.62.02-.27,0-.52-.02-.77-.05-.25-.03-.41-.08-.47-.15-.53-.4-.97-.99-1.32-1.77-.35-.78-.54-1.5-.57-2.17-.03-.47.1-1.08.4-1.85.3-.76.78-1.73,1.45-2.89.17-.27.36-.6.57-1,.22-.4.47-.85.77-1.35.33-.5.6-.92.8-1.27.2-.35.37-.62.5-.82.83-1.46,1.52-2.73,2.07-3.79.55-1.06.94-1.98,1.17-2.74.23-.76.32-1.4.25-1.9s-.28-.93-.65-1.3c-1.8.53-4.38,2.33-7.73,5.39-3.36,2.99-6.25,6.29-8.68,9.88Z" style="fill: #876046;"/>
          <path d="M134.06,147.05c-1.2,2.03-3.41,3.69-6.64,4.99-3.16,1.3-6.5,1.91-10.03,1.85-2.5-.03-4.64-.4-6.44-1.1-1.8-.7-2.96-1.68-3.49-2.94-.43-1.03-.38-2.05.15-3.04.4-.9,1.17-1.86,2.32-2.89,1.15-1.03,2.84-2.29,5.06-3.79.07-.03.39-.24.97-.62.58-.38,1.46-.96,2.62-1.72,1.13-.73,2.15-1.41,3.04-2.02.9-.62,1.68-1.16,2.35-1.62h-.3c-.13,0-.26-.02-.37-.05-.12-.03-.22-.07-.32-.1-1.2-.86-1.81-2.51-1.85-4.94-.03-2.4.48-4.91,1.55-7.53.5-1.2,1.15-2.36,1.95-3.49.8-1.13,1.71-2.2,2.74-3.22,1.03-1.01,2.15-1.94,3.37-2.77,1.21-.83,2.47-1.55,3.77-2.15.93-.43,1.84-.76,2.72-1,.88-.23,1.67-.35,2.37-.35,1.16,0,2.11.23,2.84.7.37.23.84.64,1.42,1.22.58.58,1.26,1.34,2.02,2.27.76-.63,1.53-1.29,2.29-1.97.76-.68,1.43-1.29,2-1.82l.35.2c-.83,1-1.62,2-2.37,2.99-.75,1-1.42,1.96-2.02,2.89-2.13,3.39-3.91,6.65-5.34,9.75-1.43,3.11-2.56,6.23-3.39,9.36-.23.86-.46,1.75-.67,2.67-.22.91-.46,2.17-.72,3.77-.2,1.03-.38,1.9-.55,2.62-.17.71-.32,1.29-.45,1.72-.13.43-.28.82-.45,1.17-.17.35-.33.67-.5.97ZM111.75,149.44c.53,1.26,1.5,2.24,2.89,2.92,1.4.68,3.14,1.02,5.24,1.02,1.83,0,3.61-.49,5.34-1.47,1.73-.98,3.23-2.37,4.49-4.17.43-.7.83-1.55,1.2-2.54.33-1,.78-2.74,1.35-5.24.2-1,.38-1.88.55-2.64.17-.77.33-1.46.5-2.07.17-.62.33-1.19.47-1.72.15-.53.31-1.05.47-1.55.76-2.3,1.61-4.44,2.54-6.44.93-2,2.01-3.99,3.24-5.99-1.2,1.23-2.45,2.5-3.77,3.82-1.31,1.31-2.72,2.67-4.22,4.07-1.5,1.4-2.83,2.63-3.99,3.69-1.16,1.06-2.2,1.98-3.09,2.74-3.46,2.5-5.66,4.09-6.59,4.79-.47.37-.9.72-1.3,1.05-.4.33-.78.67-1.15,1-1.03.9-1.88,1.74-2.54,2.52-.67.78-1.16,1.54-1.5,2.27-.63,1.43-.68,2.74-.15,3.94ZM126.37,120.85c-.8,2.5-1.21,4.69-1.22,6.59-.02,1.9.34,3.28,1.07,4.14,1.93-1.3,4.72-3.69,8.38-7.19,3.66-3.46,6.55-6.59,8.68-9.38-1.86-2.3-3.21-3.76-4.04-4.39-.77-.6-1.58-.9-2.45-.9-.6,0-1.31.18-2.15.55-1.7.73-3.33,2.1-4.89,4.09-.77.97-1.43,2-2,3.09-.57,1.1-1.03,2.23-1.4,3.39Z" style="fill: #876046;"/>
          <path d="M201.02,128.59c-1.17,1.43-2.42,2.74-3.77,3.94-1.35,1.2-2.82,2.28-4.42,3.24-3.13,1.93-5.99,2.89-8.58,2.89-3.73,0-6.84-.97-9.33-2.92-2.5-1.95-4.16-4.63-4.99-8.06-.73-2.93-.74-6.02-.03-9.28.71-3.26,2.07-6.39,4.07-9.38,3.23-4.69,7.35-8.55,12.38-11.58,5.09-3.09,10.2-4.64,15.32-4.64,2.13,0,4.21.32,6.24.97,2.03.65,3.96,1.64,5.79,2.97.13.03.2.15.2.35,0,.27-.4.67-1.2,1.2-.77.53-1.33.8-1.7.8h-.17s-.21-.03-.47-.1c-.27-.1-.57-.22-.92-.37-.35-.15-.92-.44-1.72-.87-1.2-.63-2.28-1.16-3.24-1.57-.97-.42-1.87-.75-2.72-1s-1.67-.42-2.47-.52c-.8-.1-1.61-.15-2.45-.15-3.53,0-6.99,1.15-10.38,3.44-3.43,2.26-6.4,5.41-8.93,9.43-1.8,2.83-3.02,5.81-3.67,8.93-.65,3.13-.67,6.09-.08,8.88.73,3.39,2.25,6.04,4.54,7.93,2.29,1.9,5.19,2.84,8.68,2.84,2.23,0,4.62-.75,7.19-2.25,2.53-1.46,4.69-3.29,6.49-5.49.1-.1.22-.11.35-.02.13.08.13.21,0,.37Z" style="fill: #876046;"/>
          <path d="M206.51,133.78c-.23.03-.42.05-.55.05h-.35c-1.4,0-1.83-.71-1.3-2.15.23-.37.52-.86.87-1.47.35-.62.77-1.35,1.27-2.22,1.03-1.8,2.88-5.09,5.54-9.88,1.4-2.5,2.56-4.57,3.49-6.24.93-1.66,1.66-2.94,2.2-3.84.53-.93.97-1.7,1.32-2.32.35-.62.64-1.09.87-1.42,1.26-2.06,2.98-4.07,5.14-6.04,2.16-1.96,4.52-3.63,7.08-4.99,4.59-2.43,9.26-3.64,14.02-3.64,1.4,0,2.59.02,3.57.07s1.72.11,2.22.17c.4.07.6.28.6.65,0,.47-.28,1.06-.85,1.8-.57.7-1.05,1.05-1.45,1.05-.5,0-1.08-.02-1.75-.07s-1.75-.14-3.24-.27c-1-.1-1.87-.18-2.62-.25-.75-.07-1.41-.12-2-.15-.58-.03-1.11-.06-1.57-.07-.47-.02-.93-.02-1.4-.02-1.26,0-2.3.08-3.09.25-.8.17-1.56.45-2.3.85-1.26.67-2.58,1.85-3.94,3.54-1.36,1.7-2.96,4.11-4.79,7.23-.6,1-1.37,2.34-2.32,4.02-.95,1.68-2.09,3.72-3.42,6.11-1.33,2.4-2.4,4.33-3.19,5.81-.8,1.48-1.36,2.5-1.7,3.07,1.43-1.76,2.97-3.46,4.62-5.09,1.65-1.63,3.43-3.21,5.36-4.74,3.86-3.13,6.62-4.81,8.28-5.04,1.7.37,2.36,1.61,2,3.72-.37,2.11-1.76,5.21-4.19,9.31-.13.2-.28.46-.45.77-.17.32-.38.71-.65,1.17-.27.43-.49.81-.67,1.12-.18.32-.34.59-.47.82-.57,1.03-.97,1.87-1.2,2.52-.23.65-.33,1.21-.3,1.67.07,1.06.55,1.73,1.45,2,.43-.13.91-.35,1.45-.65.53-.3,1.08-.64,1.65-1.02.56-.38,1.11-.79,1.65-1.22.53-.43,1.01-.88,1.45-1.35l.3.35c-1.3,1.26-2.62,2.43-3.97,3.49-1.35,1.06-2.65,1.98-3.92,2.74-.1.03-.22.07-.37.1-.15.03-.32.05-.52.05-.3,0-.58-.02-.85-.05-.27-.03-.43-.08-.5-.15-.53-.4-.97-.99-1.32-1.77-.35-.78-.54-1.5-.57-2.17-.03-.47.1-1.08.4-1.85.3-.76.78-1.73,1.45-2.89.17-.27.36-.6.57-1,.22-.4.47-.85.77-1.35.33-.5.6-.92.8-1.27.2-.35.37-.62.5-.82,1.7-2.93,2.78-5.16,3.24-6.71s.33-2.67-.4-3.37c-1.76.4-4.44,2.18-8.03,5.34-1.76,1.6-3.39,3.24-4.89,4.94-1.5,1.7-2.88,3.48-4.14,5.34-.4.57-.81,1.21-1.22,1.95-.42.73-1.02,1.8-1.82,3.19-.37.7-.63,1.19-.8,1.47-.17.28-.32.54-.45.77h-.2c-.07,0-.2.02-.4.05Z" style="fill: #876046;"/>
          <path d="M258,119.11c-1.53,1.96-3.07,3.79-4.62,5.49-1.55,1.7-3.14,3.29-4.77,4.79-3.23,2.96-5.62,4.59-7.19,4.89-.9-.13-1.74-.5-2.52-1.1-.78-.6-1.27-1.33-1.47-2.2-.1-.76.62-2.41,2.15-4.94.76-1.26,1.4-2.32,1.9-3.17s.87-1.47,1.1-1.87c1.46-2.63,2.38-4.44,2.74-5.44.33-.93.48-1.7.45-2.3-.03-.43-.19-.81-.47-1.15-.28-.33-.67-.57-1.17-.7-.77.2-1.71.68-2.82,1.45-1.12.77-2.12,1.63-3.02,2.59l-.35-.35c1.2-1.16,2.53-2.31,3.99-3.44,1.46-1.13,2.83-2.06,4.09-2.79.3-.17.6-.25.9-.25.73.07,1.38.62,1.95,1.65.63,1.06.96,2.13,1,3.19,0,.5-.22,1.2-.65,2.1-.4.93-1.46,2.96-3.19,6.09-.37.7-1.13,2.03-2.29,3.99-1.13,1.93-1.81,3.26-2.05,3.99-.03.5.13.93.5,1.3.37.37.86.63,1.5.8,1.23,0,3.43-1.53,6.59-4.59,3.09-3.03,6.1-6.62,9.03-10.78.4-.57.81-1.2,1.22-1.9.42-.7.99-1.71,1.72-3.04.37-.7.62-1.18.77-1.45.15-.27.29-.5.42-.7.5-.17.94-.28,1.32-.35.38-.07.71-.1.97-.1,1.33,0,1.73.68,1.2,2.05-.77,1.1-1.65,2.44-2.64,4.02-1,1.58-1.95,3.14-2.84,4.67-2.83,4.92-4.33,8.28-4.49,10.08-.03.4.15.79.55,1.17.4.38.88.66,1.45.82.4-.13.86-.34,1.37-.62.52-.28,1.04-.62,1.57-1,.53-.38,1.06-.8,1.6-1.25.53-.45,1.03-.91,1.5-1.37l.3.35c-1.5,1.5-2.87,2.74-4.12,3.72-1.25.98-2.45,1.82-3.62,2.52-.1.03-.25.07-.45.1-.2.03-.43.05-.7.05-.33,0-.67-.02-1.02-.05-.35-.03-.56-.08-.62-.15-.5-.37-.92-.92-1.27-1.67s-.56-1.5-.62-2.27c-.07-.67.17-1.6.7-2.79.27-.63.77-1.61,1.52-2.94.75-1.33,1.72-3.04,2.92-5.14Z" style="fill: #876046;"/>
          <path d="M281.26,132.43c-.77.43-1.42.78-1.95,1.05-.53.27-1.01.47-1.42.6-.42.13-.78.22-1.1.27-.32.05-.62.07-.92.07-.6,0-1.2-.1-1.8-.3s-1.15-.48-1.65-.85c-.5-.37-.94-.78-1.32-1.25-.38-.47-.66-.98-.82-1.55-.47-1.7-.5-3.43-.1-5.21.4-1.78,1.26-3.82,2.59-6.11.93-1.6,2.28-3.26,4.04-4.99,1.73-1.73,3.48-3.08,5.24-4.04,2.2-1.2,4.17-1.8,5.94-1.8,1.1,0,2.14.38,3.12,1.15.98.77,1.65,1.71,2.02,2.84.43,1.33.42,3.06-.05,5.19-.47,2.13-1.36,4.34-2.69,6.64-.9,1.53-2.15,3.02-3.74,4.47-1.6,1.45-3.39,2.72-5.39,3.82ZM274.02,128.59c.63,2.33,2.08,3.49,4.34,3.49,1.1,0,2.51-.32,4.24-.95.53-.27,1.11-.81,1.75-1.65.63-.83,1.26-1.88,1.9-3.14.5-.96.96-1.97,1.37-3.02s.77-2.09,1.05-3.12c.28-1.03.49-2.02.62-2.97.13-.95.18-1.8.15-2.57-.2-3.16-1.88-4.74-5.04-4.74-.63,0-1.15.07-1.55.2-.7.43-1.48,1.15-2.35,2.15-.87,1-1.7,2.13-2.49,3.39-1.4,2.3-2.45,4.55-3.17,6.76-.72,2.21-.99,4.27-.82,6.16ZM295.18,104.83c0,.6-.37.92-1.1.95-1.3.23-1.98-.1-2.05-1-.23-1.66-.48-2.95-.75-3.87-.27-.91-.6-1.65-1-2.22-.1-.1-.2-.15-.3-.15-1.06.83-2.01,1.69-2.84,2.57-.83.88-1.7,2.05-2.59,3.52-.23.33-.56.61-.97.82-.42.22-.89.34-1.42.37-.77.2-1.18.02-1.25-.55-.07-.7.76-1.68,2.5-2.94.86-.67,1.84-1.33,2.92-2,1.08-.67,2.27-1.33,3.57-2,.23-.13.47-.1.7.1.6.6,1.16,1.2,1.7,1.8.53.6,1.01,1.19,1.42,1.77.42.58.75,1.11,1,1.6.25.48.41.89.47,1.22Z" style="fill: #876046;"/>
          <path d="M303.81,126.34c-.23.37-.48.75-.75,1.15-.27.4-.53.83-.8,1.3-.27.47-.67,1.12-1.2,1.97s-1.18,1.9-1.95,3.17c-.47.03-.79.06-.97.08-.18.02-.36.02-.52.02-1.53,0-2.03-.72-1.5-2.15,2.53-3.39,4.72-6.92,6.59-10.58,1.86-3.63,2.74-6.22,2.64-7.78-.03-.5-.19-.94-.47-1.32-.28-.38-.66-.64-1.12-.77-.77.2-1.69.67-2.77,1.42-1.08.75-2.09,1.62-3.02,2.62l-.35-.35c1.3-1.26,2.65-2.44,4.07-3.54s2.74-2,3.97-2.69c.4-.17.68-.25.85-.25.7,0,1.31.52,1.85,1.55.27.53.48,1.07.65,1.62.17.55.27,1.11.3,1.67.07.93-.2,2.15-.8,3.64-.57,1.43-1.71,3.64-3.44,6.64,2.66-3.36,5.84-6.6,9.53-9.73,3.63-3.09,6.4-4.92,8.33-5.49,1.7.37,2.36,1.61,2,3.72-.37,2.11-1.76,5.21-4.19,9.31-.13.2-.28.46-.45.77-.17.32-.38.71-.65,1.17-.27.43-.49.81-.67,1.12-.18.32-.34.59-.47.82-.57,1.03-.97,1.87-1.2,2.52-.23.65-.33,1.21-.3,1.67.07,1.06.55,1.73,1.45,2,.4-.13.86-.34,1.37-.62.52-.28,1.04-.62,1.57-1,.53-.38,1.06-.8,1.6-1.25.53-.45,1.03-.91,1.5-1.37l.3.35c-1.5,1.5-2.87,2.74-4.12,3.72-1.25.98-2.45,1.82-3.62,2.52-.13.07-.26.11-.37.12-.12.02-.32.02-.62.02-.27,0-.52-.02-.77-.05-.25-.03-.41-.08-.47-.15-.53-.4-.97-.99-1.32-1.77-.35-.78-.54-1.5-.57-2.17-.03-.47.1-1.08.4-1.85.3-.76.78-1.73,1.45-2.89.17-.27.36-.6.57-1,.22-.4.47-.85.77-1.35.33-.5.6-.92.8-1.27.2-.35.37-.62.5-.82.83-1.46,1.52-2.73,2.07-3.79.55-1.06.94-1.98,1.17-2.74.23-.76.32-1.4.25-1.9s-.28-.93-.65-1.3c-1.8.53-4.38,2.33-7.73,5.39-3.36,2.99-6.25,6.29-8.68,9.88Z" style="fill: #876046;"/>
          <path d="M342.88,147.05c-1.2,2.03-3.41,3.69-6.64,4.99-3.16,1.3-6.5,1.91-10.03,1.85-2.5-.03-4.64-.4-6.44-1.1-1.8-.7-2.96-1.68-3.49-2.94-.43-1.03-.38-2.05.15-3.04.4-.9,1.17-1.86,2.32-2.89,1.15-1.03,2.84-2.29,5.06-3.79.07-.03.39-.24.97-.62.58-.38,1.46-.96,2.62-1.72,1.13-.73,2.15-1.41,3.04-2.02.9-.62,1.68-1.16,2.35-1.62h-.3c-.13,0-.26-.02-.37-.05-.12-.03-.22-.07-.32-.1-1.2-.86-1.81-2.51-1.85-4.94-.03-2.4.48-4.91,1.55-7.53.5-1.2,1.15-2.36,1.95-3.49.8-1.13,1.71-2.2,2.74-3.22,1.03-1.01,2.15-1.94,3.37-2.77,1.21-.83,2.47-1.55,3.77-2.15.93-.43,1.84-.76,2.72-1,.88-.23,1.67-.35,2.37-.35,1.16,0,2.11.23,2.84.7.37.23.84.64,1.42,1.22.58.58,1.26,1.34,2.02,2.27.76-.63,1.53-1.29,2.29-1.97.76-.68,1.43-1.29,2-1.82l.35.2c-.83,1-1.62,2-2.37,2.99-.75,1-1.42,1.96-2.02,2.89-2.13,3.39-3.91,6.65-5.34,9.75-1.43,3.11-2.56,6.23-3.39,9.36-.23.86-.46,1.75-.67,2.67-.22.91-.46,2.17-.72,3.77-.2,1.03-.38,1.9-.55,2.62-.17.71-.32,1.29-.45,1.72-.13.43-.28.82-.45,1.17-.17.35-.33.67-.5.97ZM320.57,149.44c.53,1.26,1.5,2.24,2.89,2.92,1.4.68,3.14,1.02,5.24,1.02,1.83,0,3.61-.49,5.34-1.47,1.73-.98,3.23-2.37,4.49-4.17.43-.7.83-1.55,1.2-2.54.33-1,.78-2.74,1.35-5.24.2-1,.38-1.88.55-2.64.17-.77.33-1.46.5-2.07.17-.62.33-1.19.47-1.72.15-.53.31-1.05.47-1.55.76-2.3,1.61-4.44,2.54-6.44.93-2,2.01-3.99,3.24-5.99-1.2,1.23-2.45,2.5-3.77,3.82-1.31,1.31-2.72,2.67-4.22,4.07-1.5,1.4-2.83,2.63-3.99,3.69-1.16,1.06-2.2,1.98-3.09,2.74-3.46,2.5-5.66,4.09-6.59,4.79-.47.37-.9.72-1.3,1.05-.4.33-.78.67-1.15,1-1.03.9-1.88,1.74-2.54,2.52-.67.78-1.16,1.54-1.5,2.27-.63,1.43-.68,2.74-.15,3.94ZM335.19,120.85c-.8,2.5-1.21,4.69-1.22,6.59-.02,1.9.34,3.28,1.07,4.14,1.93-1.3,4.72-3.69,8.38-7.19,3.66-3.46,6.55-6.59,8.68-9.38-1.86-2.3-3.21-3.76-4.04-4.39-.77-.6-1.58-.9-2.45-.9-.6,0-1.31.18-2.15.55-1.7.73-3.33,2.1-4.89,4.09-.77.97-1.43,2-2,3.09-.57,1.1-1.03,2.23-1.4,3.39Z" style="fill: #876046;"/>
        </g>
      </g>
      <g>
        <path d="M151.08,20.56c-.58.63-.2,1.66.65,1.76,5.79.66,13.31.93,21.95-.25,9.04-1.24,16.5-3.7,22.03-6.01.81-.34.87-1.46.11-1.89L171.35.21c-.64-.36-1.44-.24-1.94.3-6.11,6.68-12.22,13.37-18.33,20.05Z" style="fill: #876046;"/>
        <path d="M155.63,25.28c4.71.64,11.28,1.03,18.97-.08,7.61-1.1,13.75-3.29,18.07-5.2-3.47,2.08-9.57,5.14-17.77,6.35-8.43,1.24-15.32-.03-19.27-1.07Z" style="fill: #876046;"/>
      </g>
    </g>
  </g>
</svg>